<?xml version="1.0" encoding="utf-8"?>
<!-- Generator: Adobe Illustrator 17.0.0, SVG Export Plug-In . SVG Version: 6.00 Build 0)  -->
<!DOCTYPE svg PUBLIC "-//W3C//DTD SVG 1.1//EN" "http://www.w3.org/Graphics/SVG/1.1/DTD/svg11.dtd">
<svg version="1.1" id="Layer_1" xmlns="http://www.w3.org/2000/svg" xmlns:xlink="http://www.w3.org/1999/xlink" x="0px" y="0px"
	 width="784.946px" height="271.121px" viewBox="0 0 784.946 271.121" enable-background="new 0 0 784.946 271.121"
	 xml:space="preserve">
<g>
	<path d="M143.417,103.848c-0.013,0.287,0.115,0.576,0.389,0.874c0.147-0.134,0.37-0.338,0.669-0.613
		c0.296-0.272,0.587-0.402,0.874-0.39c0.252,0.727,0.664,1.1,1.235,1.125c0.159-0.421,0.529-0.69,1.106-0.807l0.113-2.564
		c-0.287-0.013-0.498-0.093-0.632-0.242C144.705,102.121,143.455,102.993,143.417,103.848z"/>
	<path d="M144.163,33.827c1.993,0.088,3.035-0.863,3.124-2.859c0.05-1.138-0.565-1.738-1.848-1.795
		c-0.427-0.019-0.979,0.352-1.655,1.105c-0.676,0.756-1.023,1.346-1.042,1.773C142.692,33.193,143.164,33.783,144.163,33.827z"/>
	<polygon points="102.759,30.756 101.505,30.058 101.486,30.485 102.74,31.183 	"/>
	<path d="M174.084,68.807c-0.5,1.304-0.863,2.149-1.095,2.552c0.2,0.32,0.497,0.961,0.896,1.935L174.084,68.807z"/>
	<path d="M172.989,71.359c-0.187-0.3-0.289-0.319-0.301-0.045C172.67,71.728,172.772,71.737,172.989,71.359z"/>
	<rect x="110.477" y="97.906" transform="matrix(-0.999 -0.0442 0.0442 -0.999 216.9241 201.4658)" width="0.428" height="0.856"/>
	<rect x="114.386" y="81.807" transform="matrix(-0.999 -0.0445 0.0445 -0.999 225.413 170.128)" width="0.428" height="1.497"/>
	<path d="M103.932,130.148c0.284,0.013,0.711,0.031,1.282,0.057l0.028-0.641c-0.281-0.153-0.702-0.315-1.263-0.484
		C103.673,129.494,103.657,129.852,103.932,130.148z"/>
	<polygon points="169.325,190.738 169.998,190.997 171.754,187.421 171.071,187.391 	"/>
	<path d="M310.305,152.842c0.088-0.14,0.266-0.335,0.545-0.591c0.442-1.267,0.612-2.225,0.514-2.876
		C310.796,151.282,310.444,152.437,310.305,152.842z"/>
	<path d="M310.305,152.842c-0.039,0.062-0.066,0.116-0.067,0.155C310.237,153.029,310.259,152.978,310.305,152.842z"/>
	
		<rect x="255.161" y="101.833" transform="matrix(-0.0441 0.999 -0.999 -0.0441 368.8428 -148.6708)" width="0.772" height="0.579"/>
	<path d="M308.397,159.679l1.594-1.089c-0.124-0.132-0.176-0.394-0.159-0.78C309.164,158.297,308.687,158.919,308.397,159.679z"/>
	<path d="M351.118,176.833l-0.119,2.7c0.028-0.641,0.188-1.407,0.488-2.297C351.221,177.355,351.101,177.219,351.118,176.833z"/>
	<path d="M305.304,170.029l0.553-0.994l-0.389-0.149C305.44,169.176,305.386,169.556,305.304,170.029z"/>
	<path d="M305.088,169.175c0.192,0.054,0.318-0.037,0.372-0.292l-0.172-0.066L305.088,169.175z"/>
	<polygon points="262.48,179.145 261.782,181.819 262.168,181.836 263.059,179.17 	"/>
	<path d="M305.46,168.883l0.009,0.003c0.009-0.091,0.017-0.181,0.021-0.254C305.485,168.728,305.475,168.811,305.46,168.883z"/>
	<rect x="347.952" y="186.755" transform="matrix(-0.999 -0.0442 0.0442 -0.999 687.8655 389.6891)" width="0.579" height="0.965"/>
	<path d="M282.481,166.076c-0.021-0.069-0.036-0.133-0.059-0.203C282.365,165.871,282.393,165.946,282.481,166.076z"/>
	<path d="M360.303,124.775c0.075,0.313,0.15,0.612,0.226,0.88C360.548,125.235,360.469,124.946,360.303,124.775z"/>
	<polygon points="305.892,168.264 306.462,168.482 306.881,167.728 306.311,167.509 	"/>
	
		<rect x="312.421" y="145.959" transform="matrix(-0.8739 -0.4861 0.4861 -0.8739 514.4863 427.0995)" width="0.432" height="1.727"/>
	<polygon points="249.575,121.376 248.988,121.543 249.323,122.718 249.901,122.743 	"/>
	<path d="M451.494,122.975c-0.259-0.012-0.584,0.103-0.981,0.343c1.192,5.077,1.786,7.682,1.78,7.808
		c-0.046,1.031-0.584,1.52-1.611,1.475c-0.799-2.354-0.981-4.035-0.55-5.049c-1.032-2.878-1.716-4.907-2.05-6.081
		c0.659-0.357,0.998-0.729,1.015-1.114c-0.872-0.682-1.348-1.606-1.423-2.768c0.057-1.284,0.111-2.507,0.162-3.664l-0.998,0.729
		c-0.386-0.017-0.57-0.218-0.553-0.604c-0.029,0.645-0.302,0.953-0.814,0.93c-1.157-0.051-2.329-1.262-3.511-3.634
		c-0.464-1.18-0.989-2.427-1.574-3.741c-1.705-2.265-3.042-4.063-4.013-5.395c-0.282,0.503-0.613,0.746-0.998,0.729
		c0.127,0.006-0.121-0.199-0.746-0.613c0.518-0.104-0.57-0.218-3.27-0.338c-0.386-0.017-1.641-0.779-3.764-2.292
		c-2.125-1.511-3.562-2.476-4.316-2.896c-2.024-0.862-3.57-1.608-4.636-2.235c-1.068-0.627-1.782-1.204-2.145-1.737
		c-1.002-0.687-2.272-1.067-3.815-1.135c-2.444-0.108-4.654,0.374-6.634,1.446c-2.518,1.564-4.972,3.195-7.366,4.892
		c-1.836,0.692-3.335,1.141-4.504,1.347c-3.574,2.161-6.307,4.232-8.197,6.208c-4.395,6.119-7.303,10.692-8.723,13.721
		c-6.466,12.211-11.314,21.335-14.543,27.376c-0.753,2.416-1.224,4.328-1.413,5.735c-2.2,3.125-3.949,6.269-5.248,9.43
		c-0.736,2.03-1.641,5.018-2.715,8.962c0.642,0.028,0.956,0.236,0.939,0.621c-0.164,0.766-0.511,2.813-1.044,6.137
		c-0.379,2.689-0.919,4.728-1.623,6.112c0.087,0.907,0.136,1.296,0.142,1.166c0.011-0.256,0.144-0.38,0.403-0.369
		c0.167,0.007,0.31,0.079,0.436,0.193c-0.073-0.186-0.14-0.356-0.226-0.571c-0.231-0.653-0.076-1.226,0.462-1.719
		c0.914,2.619,1.355,4.311,1.321,5.083l-0.746-0.613c1.3,2.632,2.602,5.202,3.911,7.709c1.668,3.035,3.724,4.609,6.168,4.717
		c0.256,0.011,0.548-0.042,0.876-0.154c0.325-0.116,0.617-0.166,0.876-0.155c0.386,0.017,1.075,0.401,2.075,1.154
		c0.997,0.751,1.622,1.135,1.882,1.147c0.512,0.023,3.43-0.428,8.755-1.352c1.318-0.715,2.366-1.055,3.137-1.021
		c0.256,0.011,0.697,0.224,1.324,0.638c0.571,0.378,0.98,0.58,1.245,0.622c0.079-0.054,1.981-0.224,5.706-0.508
		c0.011-0.259-0.101-0.651-0.334-1.174c-2.988,0.51-4.793,0.561-5.417,0.147l23.998-9.567c-0.771-0.034-1.146-0.307-1.123-0.823
		l22.078-9.845c-1.315,0.588-4.556,1.764-9.721,3.532c-5.169,1.77-7.943,2.643-8.329,2.626c-0.259-0.012-0.798-0.195-1.618-0.554
		c-0.824-0.357-1.425-0.547-1.811-0.564c-0.259-0.011-1.344,0.491-3.255,1.499c-1.914,1.011-2.999,1.509-3.255,1.498
		c-0.386-0.017-0.769-0.097-1.149-0.244c-0.38-0.144-0.7-0.224-0.956-0.235c-0.259-0.011-1.658,0.347-4.202,1.071
		c-2.544,0.727-3.946,1.081-4.202,1.07c-0.386-0.017-0.887-0.359-1.5-1.032c-0.006,0.13-0.587,0.167-1.744,0.116
		c-0.771-0.034-1.14-0.437-1.106-1.208l0.621-0.939c-6.683,2.54-11.118,3.76-13.302,3.663c-0.645-0.029-0.835-0.1-0.57-0.218
		l0.077-1.736c0.267-0.244,0.466-0.366,0.596-0.36c2.576-0.013,6.22-0.818,10.928-2.415c4.052-1.367,8.107-2.734,12.162-4.1
		c0.653-0.227,1.197-0.847,1.628-1.86l-24.668,7.219c-0.259-0.011-0.446-0.147-0.562-0.411l0.043-0.964
		c0.183-1.278,0.419-2.234,0.707-2.867c0.432-3.973,2.285-10.914,5.558-20.818c0.738-2.156,1.888-4.874,3.453-8.157
		c2.004-4.549,3.45-6.674,4.34-6.378c-0.515-0.023-0.895-0.166-1.14-0.437c1.817-3.268,3.637-6.535,5.458-9.806
		c2.49-3.882,5.494-6.261,9.011-7.138c0.228,0.656,0.205,1.169-0.068,1.543c-0.549,0.749-0.892,1.186-1.024,1.307
		c0.127,0.006-0.3-0.527-1.282-1.603c-0.023,0.515,0.136,1.295,0.476,2.34c-0.403,0.369-0.945,0.958-1.624,1.763
		c-0.682,0.809-1.218,1.332-1.616,1.572l-1.114-1.016c0.233,0.526,0.343,0.981,0.326,1.367c-0.028,0.645-0.379,1.272-1.05,1.886
		c-0.817,0.996-1.3,1.682-1.444,2.062c0.256,0.011,0.509,0.089,0.763,0.227l-1.821,1.851c-0.051,1.157,0.224,2.169,0.832,3.033
		c0.605,0.866,1.159,1.437,1.663,1.715c1.803,2.916,3.184,5.165,4.146,6.753c1.573,2.262,4.74,3.495,9.498,3.705
		c7.715,0.341,17.109-0.916,28.186-3.778c2.348-0.669,5.13-2.381,8.343-5.138c3.214-2.757,5.778-5.445,7.7-8.065
		c2.747-3.87,4.136-6.128,4.164-6.772C455.132,132.478,453.927,129.14,451.494,122.975z M361.317,178.313l-0.579-0.026l0.043-0.964
		l0.579,0.026L361.317,178.313z M377.318,152.932c-0.045,1.031-0.019,1.869,0.082,2.516l-2.973,6.052
		c-1.271,2.522-2.073,4.612-2.402,6.271c-0.063,1.416-0.048,2.51,0.048,3.287c-1.628,7.658-2.61,12.382-2.945,14.17
		c-0.248-0.267-0.754-0.42-1.526-0.454c-0.214-1.038-0.312-1.687-0.3-1.946c0.386-8.742,3.914-20.117,10.59-34.122
		c0.408-0.495,0.869-0.735,1.384-0.712C378.534,150.154,377.882,151.798,377.318,152.932z M387.378,122.073
		c-0.023,0.515,0.023,0.903,0.142,1.166c-3.812,4.598-6.282,8.032-7.412,10.301c2.156-5.056,5.216-10.205,9.185-15.44
		c4.93-6.61,9.148-10.224,12.654-10.842C397.085,112.327,392.229,117.263,387.378,122.073z M400.714,130.779
		c-0.017,0.386,0.219,0.849,0.712,1.384c-0.772-0.034-1.474-0.192-2.105-0.48C399.577,131.695,400.04,131.395,400.714,130.779z
		 M401.34,134.092c-0.299,0.889-1.476,1.287-3.531,1.197c-0.259-0.011-0.545-0.088-0.859-0.231c-0.317-0.141-0.54-0.217-0.667-0.223
		c0.817-0.994,1.493-1.737,2.031-2.229c5.389,0.498,9.825,0.694,13.308,0.588C408.372,133.823,404.944,134.124,401.34,134.092z
		 M424.764,128.75c-0.907,0.089-1.618,0.122-2.129,0.099c-0.034,0.772-0.697,1.129-1.98,1.072c-0.772-0.034-1.405-0.319-1.895-0.857
		c0.127,0.006-0.014,0.322-0.428,0.947c-6.614,0.996-12.043,1.4-16.286,1.212c-0.386-0.017-0.87-0.745-1.449-2.19
		c4.396-3.284,9.004-5.526,13.824-6.732c0.34,1.048,0.681,2.092,1.021,3.137c0.45,1.439,1.196,2.052,2.238,1.838
		c0.034-0.771-0.398-1.241-1.29-1.41c-0.447-1.566-0.779-2.804-0.995-3.716c1.157,0.051,2.93-0.03,5.325-0.248
		c2.391-0.214,3.715-0.318,3.975-0.307c0.386,0.017,0.973,0.526,1.768,1.527c0.792,1.001,1.181,1.695,1.164,2.081
		C427.553,126.877,426.598,128.058,424.764,128.75z"/>
	<polygon points="450.769,104.392 450.199,104.174 449.771,105.121 450.148,105.331 	"/>
	<path d="M504.893,195.896c0.223,0.488,0.329,0.808,0.315,0.948c0.397,0.093,0.795,0.186,1.193,0.28
		C506.457,196.552,505.952,196.138,504.893,195.896z"/>
	<path d="M581.825,196.537c0.237,0.157,0.473,0.314,0.71,0.472c0.243-0.469,0.485-0.939,0.727-1.411
		c-0.253-0.055-0.505-0.11-0.757-0.165C582.278,195.802,582.051,196.17,581.825,196.537z"/>
	<path d="M503.072,86.107c-0.008-0.466-0.423-1.231-1.229-2.282c-0.809-1.048-1.566-1.441-2.284-1.191
		c-1.435,0.502-2.141,1.883-2.13,4.14c0.002,0.453,0.488,1.427,1.474,2.947c0.984,1.521,1.852,2.189,2.59,1.975
		c0.368-0.106,0.673-0.424,0.914-0.958c-0.499-0.465-0.933-0.875-1.304-1.222C502.436,88.192,503.09,87.039,503.072,86.107z"/>
	<path d="M584.508,197.768c-0.092,0.613-0.187,1.225-0.282,1.838c1.174,0.276,1.887-0.301,2.107-1.745
		c-0.387,0.232-0.773,0.463-1.158,0.693C584.953,198.292,584.731,198.03,584.508,197.768z"/>
	<path d="M573.562,195.314c-0.027,0.198-0.26,0.652-0.693,1.354c0.811,0.186,1.626,0.373,2.444,0.561
		C574.116,196.142,573.535,195.513,573.562,195.314z"/>
	<path d="M508.483,87.054c-0.417,1.163-0.689,2.345-0.799,3.547C507.966,89.652,508.231,88.452,508.483,87.054z"/>
	<path d="M504.51,96.838c-0.225-0.783-0.456-1.373-0.695-1.77c-0.339-4.006,1.366-7.603,5.115-10.788
		c-0.143,1.017-0.293,1.924-0.447,2.774c0.517-1.443,1.262-2.857,2.251-4.24c2.065-3.001,4.462-4.761,7.19-5.286
		c0.529-0.363,0.86-0.542,0.99-0.536c0.642,0.028,1.148,0.244,1.517,0.647c-2.233,0.934-4.731,2.11-7.499,3.533
		c-3.243,6.3-5.181,10.786-5.813,13.463c0.205,1.169,0.091,2.323-0.346,3.463c-0.408,0.498-0.61,0.682-0.604,0.553
		c-0.193,4.372,0.415,6.589,1.832,6.651c0.127,0.006,0.423-0.141,0.889-0.444c0.463-0.3,0.76-0.449,0.889-0.443
		c0.256,0.011,0.383,0.083,0.377,0.21c-0.006,0.129,0.055,0.196,0.184,0.201c0.771,0.034,1.492-0.287,2.168-0.968
		c0.673-0.677,1.074-1.015,1.204-1.009c0.127,0.006,0.377,0.21,0.746,0.613c-0.017,0.386-0.428,0.947-1.234,1.685
		c0.783-0.223,1.354-0.037,1.714,0.558c0.36,0.596,0.592,1.156,0.699,1.674c0.524-0.234,1.367-0.326,2.524-0.275
		c0.256,0.011,0.623,0.447,1.102,1.304c0.475,0.86,0.966,1.429,1.47,1.708c-0.617-0.671-0.66-1.122-0.133-1.358
		c0.386,0.017,0.573,0.154,0.562,0.411c0.051-1.157,0.08-1.8,0.085-1.929l1.35,0.06c-0.017,0.386-0.374,1.143-1.067,2.272
		l3.17-1.792c0.512,0.023,1.33,0.512,2.448,1.461c0.268-0.245,0.406-0.433,0.411-0.562c0.011-0.257-0.17-0.521-0.544-0.797
		c-0.374-0.274-0.556-0.538-0.545-0.797c3.608-2.932,6.151-5.139,7.636-6.619c0.902-2.922,1.356-4.447,1.362-4.578
		c-0.006,0.13-0.081,0.32-0.218,0.57c-0.749-0.546-1.247-0.955-1.492-1.225c-0.208-1.169,0.16-2.182,1.101-3.043
		c0.028-0.641-0.018-1.094-0.133-1.359c0.132-0.121,0.328-0.179,0.587-0.167c0.416,2.21,0.606,3.765,0.567,4.663
		c1-2.275,1.204-3.938,0.607-4.997c0.132-0.121,0.265-0.182,0.394-0.176c0.619,0.544,1.051,0.95,1.299,1.217l0.043-0.964
		c-1.118-0.949-2.062-1.444-2.833-1.478c-0.067-1.418,0.042-2.444,0.329-3.077c-0.515-0.023-0.766-0.161-0.755-0.42l2.383-1.441
		c-0.124-0.132-0.275-0.332-0.457-0.6c-0.181-0.264-0.269-0.461-0.264-0.591c0.403-0.369,0.417-0.688,0.043-0.964
		c-0.521,0.107-1.488,0.127-2.901,0.065c-0.259-0.011-0.351-0.111-0.276-0.302c0.072-0.19-0.02-0.291-0.277-0.303
		c-0.645-0.029-0.95-0.362-0.922-1.007c-0.259-0.011-0.583,0.072-0.977,0.247c-0.394,0.176-0.721,0.257-0.977,0.246
		c-0.259-0.012-0.508-0.183-0.75-0.516c-0.245-0.331-0.494-0.505-0.75-0.517c-0.129-0.006-0.229,0.056-0.298,0.18
		c-0.072,0.127-0.235,0.183-0.491,0.171c-0.13-0.006-0.317-0.141-0.562-0.411c-0.38-0.144-0.895-0.166-1.543-0.068
		c-0.85-1.197-1.268-1.922-1.256-2.181c-1.151-0.178-3.131-0.621-5.931-1.324c-2.804-0.704-4.271-1.059-4.398-1.065
		c-0.645-0.028-1.563,0.384-2.76,1.231c0.703,1.577,1.038,2.751,1.004,3.523c-0.011,0.259-0.817,0.997-2.417,2.212
		c-2.008,1.717-3.286,2.884-3.826,3.503c-2.296,2.348-3.532,5.578-3.714,9.691l0.317,1.56
		C503.755,96.418,504.268,96.44,504.51,96.838z"/>
	<polygon points="499.05,96.285 499.402,97.073 499.787,97.09 499.436,96.302 	"/>
	<polygon points="503.444,84.305 503.864,83.55 503.478,83.533 503.059,84.288 	"/>
	<polygon points="514.659,206.541 518.306,207.089 518.332,206.51 514.684,205.963 	"/>
	<path d="M657.522,102.373c0.79,0.035,1.259-0.074,1.4-0.334c0.563-0.767,1.046-1.271,1.453-1.52
		c-0.124-0.135-0.493-0.746-1.107-1.83c-0.519-0.153-1.233-0.45-2.138-0.886c-0.395-0.018-0.734,0.234-1.023,0.747
		c-0.327,1.439-0.488,2.091-0.483,1.958C655.572,101.692,656.207,102.314,657.522,102.373z"/>
	<path d="M649.248,92.505l0.018-0.395c-1.71-0.076-3.871,1.017-6.48,3.277c1.05,0.18,3.261-0.58,6.633-2.28
		C649.424,92.977,649.369,92.776,649.248,92.505z"/>
	<path d="M682.997,214.75c0.338,0.139,0.677,0.228,1.021,0.243c-0.13-0.006-0.392-0.082-0.782-0.232
		C683.145,214.757,683.072,214.753,682.997,214.75z"/>
	<path d="M681.232,213.088c-0.186-0.271-0.781-0.956-1.79-2.058l0.619-0.567l0.044-0.988c-2.465-0.901-5.769-2.299-9.91-4.199
		c-2.831-1.576-7.076-4.074-12.733-7.491c-0.24-0.536-0.676-1.085-1.313-1.642c-6.857-3.074-11.692-5.664-14.504-7.767
		c-0.118-0.268-0.233-0.669-0.343-1.203c0.156-0.519,0.229-0.714,0.224-0.584c0.145-0.256-0.047-0.398-0.575-0.421
		c-0.13-0.006-0.331,0.053-0.602,0.171c-0.119-0.268-0.369-0.61-0.747-1.023c0.138-0.124,0.308-0.249,0.511-0.373
		c0.203-0.121,0.373-0.181,0.503-0.175c-0.13-0.006-0.263-0.012-0.395-0.018c-0.135,0.127-0.336,0.183-0.602,0.171
		c-0.79-0.035-1.563-0.464-2.319-1.29c-0.755-0.825-1.327-1.312-1.717-1.462c0.144-0.256,0.413-0.378,0.808-0.36
		c-0.13-0.006-0.39-0.147-0.773-0.43L635,181.945c-0.902-0.436-1.277-0.913-1.124-1.436c-0.13-0.006-0.453-0.184-0.966-0.537
		c-0.51-0.351-1.535-1.089-3.069-2.215c-4.109-2.557-9.684-6.299-16.726-11.231c-1.139-1.105-2.85-2.699-5.134-4.779
		c-1.917-1.402-4.787-3.642-8.611-6.715c0.678-0.366,1.796-1.04,3.356-2.029c1.562-0.986,3.769-2.407,6.622-4.26
		c6.102-3.689,14.141-7.887,24.114-12.593c1.737-0.449,4.213-1.264,7.432-2.443c1.226-0.868,3.001-2.174,5.32-3.922
		c0.202-1.574,0.974-2.595,2.313-3.065c1.341-0.467,2.23-1.188,2.669-2.158c0.439-0.971,0.702-2.444,0.789-4.419
		c0.023-0.525-0.279-1.101-0.914-1.723c-0.632-0.622-1.149-0.874-1.55-0.762c0.955-3.688,1.482-5.442,1.589-5.295
		c-0.012-0.54-0.131-0.983-0.407-1.284c-0.313-0.342-0.85-0.928-1.605-1.754c-0.227-0.802-0.505-2.002-0.83-3.6
		c-0.767-0.56-1.611-0.863-2.534-0.904c-0.262-0.012-0.634,0.204-1.117,0.643c-0.48,0.443-0.852,0.655-1.117,0.644
		c-0.13-0.006-0.581-0.289-1.348-0.852c-0.245-0.407-1.752-0.671-4.518-0.794c-0.395-0.018-0.657-0.029-0.79-0.035
		c2.046-1.493,3.531-2.219,4.451-2.178c0.266,0.012,0.59,0.094,0.979,0.241c0.389,0.15,0.652,0.227,0.782,0.233
		c1.581,0.07,3.117-0.323,4.605-1.182c-0.263-0.012-0.599,0.106-1.005,0.352c0.052-1.186-0.096-2.312-0.444-3.385l-0.988-0.044
		c-0.79-0.035-3.812,1.152-9.065,3.558c-5.928,2.775-8.958,4.157-9.091,4.151c-1.598,0.325-4.063,0.878-7.398,1.652
		c-3.888,1.412-6.984,2.794-9.289,4.142c-3.133,2.237-7.89,5.392-14.275,9.465c-0.943,0.487-2.232,1.222-3.859,2.205
		c-1.627,0.986-3.018,1.88-4.177,2.686c-0.479,0.336-0.997,0.719-1.538,1.131c2.032-5.232,3.452-8.761,4.249-10.569
		c0.111-0.379,0.759-1.426,1.951-3.137c0.876-1.118,1.356-2.281,1.438-3.494l0.792-0.592c0.036-0.124,0.172-0.817,0.406-2.056
		c0.774-0.787,1.58-1.615,2.45-2.529c-0.262-0.012-0.717-0.162-1.365-0.456l0.619-0.567c-0.542,0.365-1.13,0.791-1.74,1.244
		c-0.1-0.364-0.234-0.709-0.44-1.015c-0.998,0.119-1.721,0.248-2.175,0.391c0.145-2.843,0.185-4.139,0.11-3.884
		c-0.201,0.215-0.491,0.268-0.87,0.157c-0.255-0.075-0.95-1.448-2.089-4.117c-0.223,0.759-0.514,0.809-0.871,0.157l0.859-2.222
		c-1.034,0.244-1.905,0.4-2.611,0.47c-0.322-0.784-0.608-1.209-0.86-1.283c-0.924,2.202-2.22,2.646-3.895,1.33
		c-2.165,1.287-3.784,2.115-4.853,2.491c-0.416,0.013-1.328-0.39-2.735-1.215c-1.064-0.589-2.115-0.759-3.148-0.512
		c-0.976-0.425-1.707-0.501-2.198-0.233c-2.785,1.517-4.847,2.699-6.193,3.54c-2.523,0.63-4.097,2.023-4.729,4.176
		c-0.408,1.391-0.65,2.212-0.724,2.467c0.232,0.615,0.365,0.861,0.401,0.736c-0.074,0.252-0.187,0.286-0.34,0.106
		c-0.152-0.184-0.265-0.149-0.34,0.106c-0.036,0.124-0.151,1.327-0.339,3.61c-0.189,2.279-0.351,3.88-0.484,4.805
		c-0.79,4.085-1.431,7.406-1.924,9.963c-0.372,1.35-0.625,2.469-0.728,3.291c0.07-0.043,0.118-0.052,0.18-0.084
		c-0.013,0.333,0.006,0.641,0.068,0.919c-0.017,0.005-0.027,0.01-0.045,0.015c-0.357,0.093-0.611,0.2-0.759,0.317
		c0.776,0.374,1.071,0.753,0.887,1.142c-0.101,0.078-0.197,0.118-0.294,0.167l-0.403-0.539c-0.055,0.189-0.104,0.413-0.147,0.673
		c-0.007-0.001-0.014,0.003-0.021,0.002c0.009,0.001,0.011,0.008,0.019,0.009c-0.042,0.26-0.078,0.556-0.107,0.889
		c-0.06,0.667-0.107,1.066-0.144,1.193l0.061-0.121c-0.079,0.271-0.136,0.503-0.156,0.667c0.44-0.219,0.716-0.252,0.838-0.101
		c-0.154,0.119-0.273,0.243-0.357,0.368c-0.025,0.036-0.025,0.075-0.043,0.112l-0.566-0.166l-0.1,0.231
		c-0.077-0.021-0.15-0.079-0.228-0.088c0.012,0.199,0.013,0.372,0.022,0.562l-0.329,0.758l0.364,0.107
		c0.03,1.531-0.063,2.768-0.284,3.695l-0.278,0.583c0.041,0.083,0.055,0.147,0.088,0.224c-0.729,2.546-0.923,3.43-0.567,2.613
		c0.029,0.833,0.065,1.184,0.101,1.059c-0.074,0.252-0.216,0.381-0.424,0.392c-0.208,0.006-0.35,0.136-0.425,0.391
		c-0.074,0.251-0.099,0.692-0.076,1.316c0.021,0.626-0.004,1.063-0.078,1.317c-0.631,2.15-0.921,3.368-0.869,3.66
		c-0.833,2.365-1.219,4.383-1.158,6.05c1.279-4.356,2.196-7.479,2.777-9.457c0.306,0.09,0.381,0.361,0.201,0.829
		c-0.306,0.238-0.474,0.491-0.507,0.76c0.114,0.014,0.221,0.104,0.326,0.216c-0.146,0.464-0.529,2.055-1.16,4.83
		c0.1,0.289-0.331,3.188-1.291,8.698c0.943,0.118,1.316,0.439,1.116,0.964c-0.814,2.095-1.124,4.047-0.94,5.858
		c0.609-0.475,1.03-0.561,1.269-0.254c-0.085,0.676-0.203,1.623-0.355,2.841c-0.051,1.502-0.034,2.468,0.053,2.891
		c0.229,0.549,0.36,0.999,0.41,1.366c-1.221,0.302-2.089,0.447-2.581,0.425c-1.031-0.046-1.523-0.517-1.483-1.418
		c0.023-0.512,0.635-1.258,1.838-2.238c-1.445,0.582-2.23,0.868-2.357,0.862c-0.515-0.023-0.832-0.164-0.947-0.428
		c-11.753,9.402-17.888,14.089-18.4,14.066c-0.515-0.023-0.705-0.094-0.57-0.218l1.208-1.106c-0.532,0.363-0.861,0.479-0.981,0.343
		l9.658-8.655c-5.332,4.016-8.264,6.205-8.793,6.568c2.411-2.082,4.882-4.098,7.417-6.049c2.952-2.702,4.864-5.129,5.733-7.283
		l-15.178,11.117c-0.259-0.012-0.449-0.083-0.57-0.218c-0.474-3.886-0.618-7.884-0.436-12c0.233-5.27,1.027-11.612,2.387-19.025
		l2.517-13.221l1.493-11.915c0.121,0.135,0.179,0.33,0.167,0.587c0.028-0.643,0.506-1.264,1.435-1.869
		c-0.248-0.268-0.366-0.467-0.36-0.596c-0.386-0.017-0.78,0.159-1.183,0.527l-0.125-1.551c0.072,0.003,0.321,0.014,0.771,0.034
		c0.771,0.034,0.877-0.927,0.321-2.884c-0.662,0.357-1.12,0.53-1.376,0.519l-0.561-0.411l0.051-1.157
		c0.04-0.898,0.612-2.225,1.722-3.982c-0.532,0.363-0.996,0.665-1.393,0.905c-0.952,1.117-1.556,1.67-1.813,1.659
		c-0.129-0.006-0.317-0.141-0.561-0.411c0.006-0.127,0.011-0.257,0.017-0.386c0.138-0.251,0.213-0.441,0.218-0.57l-1.157-0.051
		c-1.031-0.046-2.541,0.66-4.538,2.118c-1.213-1.726-2.123-2.992-2.731-3.792c-1.076,0.985-1.677,1.472-1.804,1.466
		c-1.059,0.599-1.85,1.014-2.374,1.248c-1.769,2.114-2.885,4.06-3.35,5.842c-1.655,5.338-3.481,13.18-5.485,23.525
		c-2.049,11.377-3.21,20.148-3.482,26.32c-0.347,7.845,1.125,15.316,4.42,22.418c0.931,2.23,2.169,3.381,3.712,3.449
		c0.256,0.011,0.25,0.138-0.017,0.386c-0.135,0.121-0.075,0.19,0.184,0.201c0.386,0.017,1.289-0.073,2.717-0.266
		c0.512,0.023,0.909-0.219,1.191-0.72c0.619,0.541,0.988,0.943,1.106,1.208c0.023-0.516,0.227-0.763,0.613-0.746
		s0.633,0.221,0.746,0.613c0.971,1.329,1.832,2.269,2.581,2.82c0.386,0.017,0.989,0.171,1.815,0.467
		c0.824,0.292,1.363,0.447,1.622,0.458c0.127,0.006,0.458-0.173,0.99-0.536c1.033-0.085,1.865,0.016,2.499,0.304
		c-0.447-1.566-0.157-2.326,0.874-2.28c0.256,0.011,0.576,0.088,0.956,0.236l0.579,0.026c-0.51-0.153-0.553-0.604-0.133-1.359
		c0.898,0.04,1.744-0.116,2.533-0.468c-0.493-0.539-0.536-0.99-0.133-1.359l-0.797,0.545l0.017-0.386
		c2.276-1.959,4.08-3.425,5.412-4.398c1.481-1.48,2.56-2.592,3.239-3.335c1.493-1.736,2.649-3.102,3.466-4.098
		c0.023-0.512,0.103-0.895,0.244-1.149c2.957-2.831,4.707-4.493,5.245-4.986c-0.639-0.155-0.947-0.428-0.93-0.814
		c0.022-0.499,0.997-1.456,2.889-2.85c0.029,0.272,0.017,0.502-0.06,0.665c0.524,0.2,0.592,0.759,0.205,1.674
		c0.267,0.034,0.462,0.126,0.583,0.278c-0.154,0.117-0.432,0.153-0.838,0.102c0.357,3.753,0.53,6.485,0.522,8.204
		c-0.008,1.714,1.075,3.188,3.259,4.423c-0.865-1.893-1.176-3.237-0.94-4.031c-0.222-0.441-0.466-0.677-0.735-0.709
		c-0.201-1.675-0.261-2.85-0.179-3.526c-0.338-0.592-0.541-1.168-0.609-1.723l0.355-1.192c-0.338-1.691-0.457-2.942-0.355-3.753
		c-0.237-1.404-0.449-2.461-0.635-3.17c-0.135-2.216-0.068-4.405,0.201-6.567c0.085-0.68,0.13-1.601,0.141-2.766
		c0.006-1.168,0.019-1.819,0.038-1.952c0.235-1.893,0.492-3.133,0.771-3.716c0.278-0.584,0.494-0.934,0.646-1.053
		c0.152,0.981,0.254,1.819,0.305,2.511c-0.069,0.767-0.13,1.447-0.188,2.08c0,0.004-0.001,0.011-0.002,0.015l0-0.001
		c-0.236,2.608-0.377,4.096-0.416,4.423c0.188,5.103,0.331,8.901,0.432,11.386c0.237,0.303,0.413,0.53,0.534,0.684
		c0.101,2.484,0.244,4.08,0.432,4.792c-0.239,0.794-0.323,1.47-0.254,2.028c0.93,2.451,1.453,4.303,1.573,5.554
		c1.658,2.129,3.035,3.743,4.135,4.843l0.15-1.217l-1.622-3.5c0.034-0.272,0.201-0.525,0.506-0.76
		c1.537,1.975,2.578,3.547,3.12,4.716c0.643,0.353,1.09,0.616,1.346,0.786c0.404,1.148,0.778,2.018,1.116,2.612
		c-0.477-1.708,0.039-3.086,1.545-4.135c1.893,2.432,3.248,4.249,4.059,5.451c-0.509-2.536-0.737-4.006-0.686-4.412l0.147-0.114
		c-0.127-0.061-0.177-1.112-0.149-3.182c0.169-0.257,0.21-0.592,0.128-1.014c-0.812-1.203-1.201-1.937-1.167-2.206
		c0.068-0.542,0.152-0.671,0.254-0.381c0.727,0.777,1.075,1.3,1.039,1.572l1.498,4.513c-0.186,1.487-0.135,3.28,0.154,5.376
		c-0.188-1.81-0.163-3.11,0.075-3.904l0.406,0.051c0.759,2.701,1.182,4.267,1.267,4.69l0.432-0.153
		c-0.474-2.808-0.898-4.92-1.269-6.338c0.235-1.895,0.479-3.307,0.733-4.234c-1.285-4.009-1.902-6.214-1.851-6.618
		c-0.017,0.133-0.096,0.194-0.229,0.177c-0.118-0.154-0.16-0.364-0.128-0.633c0.15-0.12,0.318-0.341,0.496-0.66
		c0.177-0.322,0.398-0.466,0.673-0.432c1.03,2.737,1.436,4.987,1.218,6.747c0.538,0.067,0.936,0.183,1.192,0.353
		c-1.101-6.595-1.449-10.964-1.043-13.11c0.167-0.256,0.102-0.812-0.203-1.674c-0.305-0.863-0.449-1.363-0.432-1.497
		c0.203-1.622,0.829-2.781,1.878-3.473c0.343,0.442,0.579,0.67,0.718,0.699c0.061-0.713,0.12-1.655,0.177-2.812
		c0.229,0.249,0.502,0.536,0.753,0.805c-0.053,0.288-0.091,0.611-0.152,0.877c0.504,0.063,0.862,0.107,1.101,0.137
		c0.051,0.054,0.117,0.12,0.169,0.175c-0.419,0.41-0.827,0.732-1.221,0.93c0.338,1.69,0.417,3.277,0.231,4.767l0.686-0.533
		c0.132,1.114-0.011,2.266-0.432,3.449c0.319-0.372,0.44-0.222,0.355,0.457c-0.051,0.406-0.28,0.583-0.686,0.532
		c-0.677-3.381-1.124-5.29-1.344-5.73c-0.163,1.303-0.213,2.011-0.153,2.135c-0.173,0.176-0.413,0.267-0.758,0.224l-0.229,1.826
		c0.338-0.507,0.6-0.955,0.786-1.344c0.425,3.211,0.56,5.427,0.408,6.643c0.372,0.32,0.615,0.558,0.735,0.71
		c0.421,1.013,0.729,2.424,0.913,4.235l0.635-0.127c0.406,0.05,0.675,0.084,0.812,0.101c-0.571-3.567-0.446-9.309,0.351-17.148
		c1.936,2.001,4.253,4.337,7.056,7.101c0.778,0.3,1.876,0.874,3.289,1.729c2.921,2.638,7.325,6,13.213,10.086
		c0.121,0.271,0.369,0.61,0.746,1.023c1.54,0.993,4.018,2.454,7.428,4.386c3.412,1.932,8.734,4.71,15.963,8.327l0.729,1.418
		c2.318,1.29,5.539,3.084,9.66,5.376c-0.245-0.407-0.171-0.602,0.224-0.584c0.266,0.012,0.389,0.15,0.378,0.413
		c-0.006,0.133,0.124,0.204,0.386,0.215c0.266,0.012,0.398-0.048,0.404-0.18c-0.13-0.006-0.065-0.003,0.198,0.009l1.546,0.86
		c-0.407,0.248-0.808,0.36-1.203,0.343c0.266,0.012,0.584,0.224,0.962,0.637c0.144-0.256,0.28-0.316,0.404-0.18
		c0.115,0.401,1.847,1.536,5.194,3.397l0.988,0.044c0.006-0.13,0.147-0.322,0.421-0.575c-0.006,0.132-0.384-0.28-1.133-1.238
		c0.018-0.395-0.092-0.861-0.334-1.401c-1.545-0.86-3.988-2.285-7.333-4.283c0.407-0.245,1.271-0.34,2.586-0.282
		c0.132,0.006,0.908,0.372,2.327,1.093c0.121,0.271,0.239,0.605,0.352,1.005c9.934,5.19,14.636,7.773,14.108,7.75
		c0.133,0.006,0.468-0.078,1.001-0.253c0.537-0.174,0.936-0.256,1.199-0.244c0.395,0.018,1.065,0.542,2.009,1.574
		c0.944,1.032,2.139,1.644,3.581,1.841c1.243,1.768,2.325,2.676,3.245,2.717c0.266,0.012,0.567-0.074,0.902-0.257
		c0.339-0.183,0.64-0.269,0.902-0.257c-0.262-0.012,0.572,0.487,2.508,1.497c-0.006,0.125,0.164,0.578,0.501,1.338
		c0.03-0.085,0.173-0.248,0.452-0.504c0.649,0.291,1.743,0.868,3.289,1.729l-0.567-0.619c0.413-0.378,0.805-0.295,1.177,0.25
		l0.052-1.185l-1.976-0.088l-0.369-0.61c0.139-0.127,0.67-0.168,1.589-0.128c-2.924-2.505-4.971-3.981-6.139-4.428
		c-0.118-0.271-0.109-0.469,0.026-0.593l-1.51-1.651c-0.263-0.012-0.398,0.051-0.404,0.18c-0.006,0.133-0.138,0.192-0.404,0.18
		l-0.378-0.413c0.277-0.25,0.754-0.625,1.435-1.124c1.907,0.937,4.758,2.313,8.533,4.117c-0.723-0.413-1.548-1.023-2.496-1.87
		l0.808-0.36l3.951,0.175c1.318,0.058,2.068-0.468,2.248-1.583c0.182-1.112,0.404-1.665,0.667-1.653
		c0.087,0.004,0.212,0.009,0.354,0.016c-0.44-0.181-0.876-0.456-1.306-0.85C681.573,213.632,681.417,213.362,681.232,213.088z
		 M613.471,113.688l-0.018,0.395l-1.005,0.352l-0.18-0.404L613.471,113.688z M608.409,116.236l1.203-0.343l-0.026,0.593
		l-1.203,0.343L608.409,116.236z M607.395,116.785l0.378,0.413l-0.637,0.962l-0.584-0.224L607.395,116.785z M590.851,103.304
		l0.838,0.658l-0.112,0.38l-1.027-0.714L590.851,103.304z M552.205,146.709c-0.174,0.162-0.297,0.294-0.396,0.411
		c0.381-1.298,0.595-2.025,0.624-2.126c0.216,0.198,0.287,0.425,0.213,0.68c0.051-0.353,0.16-0.707,0.271-1.061l0.151,0.968
		C552.88,145.969,552.59,146.344,552.205,146.709z M553.622,134.524c-0.014-0.009-0.029-0.008-0.042-0.016l0.144-0.244
		C553.682,134.349,553.633,134.435,553.622,134.524z M560.173,167.877l0.35,0.103l0.029,0.163l0,0.004l-0.381-0.048l-0.013-0.104
		L560.173,167.877z M560.502,168.553l-0.1,0.797l-0.08,0.014l-0.102-0.846L560.502,168.553z M560.551,171.443l-0.609-0.076
		l0.102-0.811l0.609,0.076L560.551,171.443z M567.227,195.557l-0.406-0.051l-0.203-1.674l0.609,0.076V195.557z M568.52,195.101
		l-0.406-0.051l-0.329-0.659l0.43-0.152L568.52,195.101z M570.087,170.985c0.507,1.435,0.771,2.085,0.786,1.953
		c-0.083,0.675-0.507,1.308-1.267,1.901L570.087,170.985z M570.038,181.281c-0.068-0.559-0.128-1.458-0.177-2.702
		c-0.053-1.242-0.113-2.144-0.179-2.7c0.423-0.086,0.701-0.118,0.836-0.101c-0.051,2.601,0.177,4.072,0.686,4.412L570.038,181.281z
		 M572.239,161.827c-0.324,0.266-0.512,0.56-0.527,0.89c-0.006,0.132,0.109,0.371,0.291,0.669c-0.57,3.788-0.906,6.098-1.003,6.889
		c-0.423,0.082-0.712,0.184-0.863,0.304c0.007-1.474,0.082-2.882,0.179-4.268c0.59-2.874,1.172-5.146,1.748-6.812
		c0.048,0.422,0.138,0.898,0.304,1.469C572.323,161.27,572.282,161.539,572.239,161.827z M586.83,129.733
		c-0.159,0.655-0.126,1.38,0.102,2.182c-0.579,0.532-1.416,1.299-2.483,2.274c0.133-0.641,0.271-1.283,0.432-1.932
		c0.282-0.249,0.56-0.494,0.883-0.789c-0.282,0.152-0.544,0.305-0.809,0.457c0.126-0.495,0.285-1,0.427-1.5
		c0.047-0.123,0.098-0.256,0.145-0.377c0.342-0.337,1.323-1.071,2.97-2.22l0.369,0.61
		C588.592,128.691,587.914,129.121,586.83,129.733z M629.683,181.314c-0.124-0.135-0.18-0.404-0.163-0.799
		c2.189,1.285,5.277,3.073,9.265,5.359C635.019,184.519,631.984,182.999,629.683,181.314z M673.412,222.046l1.15,0.843l-0.413,0.378
		l-0.952-0.834L673.412,222.046z M667.308,216.827c-0.124-0.135-0.316-0.277-0.575-0.421c-0.256-0.141-0.448-0.282-0.575-0.421
		c0.023-0.525,0.301-0.779,0.825-0.756c0.133,0.006,0.516,0.288,1.151,0.843L667.308,216.827z M673.718,215.132
		c-0.531,0.109-1.047-0.176-1.546-0.86c0.917,0.173,2.155,0.491,3.719,0.956L673.718,215.132z M675.267,211.439
		c0.649,0.294,1.617,0.798,2.903,1.514l-0.988-0.044C676.535,212.618,675.898,212.128,675.267,211.439z M679.636,215.591
		l-1.778-0.079l0.026-0.593l1.778,0.079L679.636,215.591z"/>
	<polygon points="702.964,173.178 703.694,174.395 703.999,174.342 703.299,173.003 	"/>
	<polygon points="722.377,174.543 721.983,174.961 722.259,175.03 722.653,174.612 	"/>
	<path d="M723.227,178.891c-0.092-0.023-0.266-0.111-0.522-0.26c-0.06-0.964-0.025-1.515,0.107-1.653
		c-0.039,0.162-0.244,0.197-0.611,0.106c0.171,0.903,0.596,2.172,1.275,3.808C723.389,180.438,723.307,179.771,723.227,178.891z"/>
	<path d="M720.645,185.352c0.119,0.719,0.397,1.78,0.84,3.183c0.315-0.095,0.518-0.129,0.61-0.106
		c-0.217-0.313-0.459-0.825-0.725-1.538C721.103,186.178,720.862,185.665,720.645,185.352z"/>
	<polygon points="721.571,176.667 721.876,176.615 721.668,175.658 721.363,175.711 	"/>
	<polygon points="712.445,170.25 712.75,170.198 712.592,169.641 712.286,169.694 	"/>
	<path d="M688.108,91.152c-0.008,0.033-0.003,0.049-0.01,0.081C688.276,91.256,688.285,91.231,688.108,91.152z"/>
	<path d="M712.691,170.441c-0.054-0.014-0.046,0.067,0.01,0.222C712.804,170.548,712.809,170.471,712.691,170.441z"/>
	<path d="M716.98,185.69c-0.05,0.348,0.129,0.708,0.544,1.079C717.33,186.392,717.151,186.035,716.98,185.69z"/>
	<polygon points="717.268,187.222 717.535,187.935 717.84,187.882 717.603,187.047 	"/>
	<path d="M666.915,188.298c-0.164-0.127,0.497-0.244,1.999-0.35c-0.058-0.077-0.145-0.31-0.266-0.735
		c-0.186-0.65-0.639-1.496-1.361-2.538c-0.046-0.011-0.177-0.044-0.414-0.103c-1.013-0.253-1.605-0.014-1.782,0.718
		c-0.098,0.406,0.077,0.988,0.529,1.748C666.011,187.697,666.445,188.108,666.915,188.298z"/>
	<path d="M709.78,184.316c-0.014-0.044-0.026-0.079-0.04-0.123C709.674,184.245,709.671,184.288,709.78,184.316z"/>
	<polygon points="709.469,178.94 709.745,179.009 709.646,178.209 709.341,178.261 	"/>
	<path d="M719.718,184.346c0.269,0.388,0.578,0.623,0.918,0.729c-0.071-0.135-0.189-0.535-0.358-1.235
		C720.219,184.083,720.033,184.25,719.718,184.346z"/>
	<path d="M720.703,185.108c-0.024-0.006-0.044-0.027-0.068-0.034C720.667,185.134,720.692,185.158,720.703,185.108z"/>
	<path d="M717.656,181.375c0.262,0.065,0.764,0.191,1.517,0.379c-0.007,0.429,0.04,1.044,0.14,1.844
		c0.367,0.092,0.662,0.078,0.886-0.037c-0.409-1.136-1.159-2.875-2.251-5.215l-1.229,0.855c0.237,0.231,0.492,0.382,0.768,0.451
		c0.183,0.046,0.249-0.025,0.197-0.209c0.039-0.163,0.069-0.285,0.088-0.366c0.164,0.126,0.4,0.359,0.71,0.695
		c0.178,0.475,0.247,0.793,0.208,0.957C718.67,180.809,718.326,181.025,717.656,181.375z"/>
	<path d="M730.004,163.331c-0.19,0.024-0.417,0.106-0.687,0.241c-0.189,0.024-0.377,0.049-0.564,0.073l-0.459-0.246
		c0.507-0.324,0.922-0.521,1.264-0.618c-0.176-0.027-0.346-0.106-0.51-0.242l0.368-0.505c1.818-0.743,3.326-1.291,4.524-1.652
		c-2.481,0.014-4.29,0.046-5.43,0.089c0.163-0.223,0.62-0.385,1.373-0.482c1.784-0.23,6.681-1.571,14.686-4.029
		c-0.471,0.061-0.805,0.054-1.005-0.023l-0.055-0.451c-0.838-0.603-1.82-0.834-2.947-0.689c-5.497,1.116-8.902,1.758-10.217,1.927
		l0.368-0.505c0.281-0.036,0.656-0.085,1.127-0.145c0.469-0.061,0.751-0.097,0.846-0.109c0.564-0.073,2.281-0.852,5.155-2.343
		c1.043-0.845,1.98-1.373,2.814-1.584c-0.802-0.302-2.294-0.415-4.479-0.338c-1.811,0.03-3.033-0.22-3.67-0.748
		c0.163-0.224,0.432-0.361,0.809-0.409c-1.317,0.17-3.343,0.38-6.08,0.631l-4.088,0.527l-1.128,0.145
		c-0.131-0.288-0.79-0.609-1.979-0.966c0.08-0.111,0.129-0.295,0.147-0.553c0.016-0.255,0.065-0.441,0.147-0.554
		c0.656-0.085,1.061-0.289,1.214-0.614c-0.539,0.275-1.75,0.531-3.629,0.773c-0.52-0.338-0.991-0.686-1.415-1.039
		c-0.106,0.014-0.349,0.063-0.702,0.141l-1.356-4.645l0.414,0.103c-0.664-0.081-1.088-0.445-1.271-1.093
		c-0.186-0.651-0.157-1.073,0.087-1.271c0.223-0.118,0.38-0.163,0.473-0.14c-0.039,0.162,0.017,0.327,0.173,0.495
		c0.154,0.168,0.222,0.292,0.202,0.374c-1.671-8.43-3.911-20.75-6.724-36.961c-0.237-0.231-0.537-0.606-0.897-1.129
		c-0.034-0.267-0.094-0.625-0.178-1.079c-0.074-0.103-0.054-0.185,0.059-0.244c0.314-0.092,0.531-0.384,0.649-0.871
		c0.118-0.488,0.057-0.846-0.178-1.079c-0.034-0.267,0.108-0.446,0.422-0.541c-0.197-0.393-0.276-1.275-0.238-2.645
		c-0.147-0.208-0.31-0.336-0.493-0.382c-0.092-0.023-1.093,0.288-3.003,0.929c-0.58-0.834-0.907-1.69-0.987-2.573
		c-0.29-0.416-0.526-0.649-0.71-0.694c-1.013-0.253-1.764-0.57-2.256-0.952c-0.112,0.059-0.229,0.136-0.349,0.235
		c-0.122,0.099-0.192,0.19-0.212,0.271c-0.566-0.485-0.798-0.931-0.7-1.338c0.039-0.162,0.304-0.655,0.795-1.481
		c0.15-0.221,0.509-0.497,1.078-0.829c0.567-0.331,0.871-0.578,0.91-0.742c0.039-0.161-0.068-0.425-0.321-0.791
		c-0.254-0.364-0.407-0.639-0.458-0.825c-0.054-0.185-0.104-0.479-0.154-0.879c-0.05-0.4-0.305-0.658-0.765-0.772
		c-0.644-0.161-1.275,0.027-1.89,0.561c-0.374,0.338-0.573,0.955-0.594,1.854c-0.023,0.899-0.294,1.412-0.811,1.542
		c-0.133,0.14-0.147,0.308-0.049,0.505c0.099,0.198,0.129,0.377,0.09,0.539c-0.113,0.058-0.22,0.097-0.32,0.113
		c-0.104,0.019-0.201,0.015-0.291-0.008c-0.198-0.393-0.532-1.038-0.997-1.929c-0.454-0.544-1.049-0.908-1.783-1.092
		c-0.92-0.23-2.078,0.127-3.476,1.07c-0.151,0.221-0.443,0.622-0.875,1.203c-0.151,0.221-0.364,0.297-0.64,0.228
		c-0.154-0.118-0.172-0.41-0.08-0.842c-0.263-0.035-0.908-0.181-1.951-0.442c-0.02,0.082,0.032,0.267,0.158,0.557l-0.118,0.488
		c-0.427,0.152-0.709,0.513-0.846,1.08l-0.118,0.487c-0.296,0.013-0.748,0.072-1.358,0.177c0.532,0.22,0.759,0.492,0.68,0.816
		c-0.098,0.407-0.447,0.837-1.043,1.29c-0.225,0.117-0.65,0.269-1.28,0.455c-0.191,0.384-0.558,0.894-1.102,1.533
		c-0.225,0.118-0.491,0.31-0.798,0.576c-0.308,0.268-0.745,0.762-1.307,1.482c-0.284,0.361-0.521,0.948-0.717,1.759
		c-0.196,0.814-0.722,1.974-1.573,3.484c-0.151,0.221-0.378,0.658-0.683,1.315c-0.304,0.654-0.673,1.274-1.106,1.856
		c-0.472,0.743-0.6,1.272-0.382,1.584c-0.598,0.452-0.939,1.058-1.022,1.811c-0.092-0.023-0.231-0.058-0.414-0.103
		c-0.015-0.022-0.035-0.021-0.051-0.039c0.05,0.054,0.101,0.111,0.159,0.196c-1.122,1.012-1.928,1.929-2.42,2.755
		c-1.947,3.217-4.158,7.532-6.635,12.943c-1.179,2.462-2.647,5.713-4.402,9.754c-0.57,1.15-1.297,2.949-2.181,5.399
		c-0.112,0.057-0.382,0.163-0.807,0.315c-0.983,1.648-2.29,4.035-3.922,7.161c-3.628,9.774-5.618,15.395-5.971,16.857
		c0.039-0.163-0.117,1.09-0.469,3.76c0.367,0.092,0.659,0.294,0.876,0.607c1.063-0.768,1.674-2.296,1.838-4.58
		c-0.039,0.161,0.11-0.06,0.452-0.662c0.142-0.998,0.374-1.76,0.696-2.282c0.198,0.393,0.328,0.858,0.396,1.392
		c-0.145,0.998-0.248,2.435-0.312,4.316c0.032,0.267,0.155,0.77,0.366,1.513c0.209,0.741,0.297,1.193,0.257,1.357
		c-0.549,2.273-1.561,3.228-3.03,2.86c-0.738-0.184-1.34-0.508-1.813-0.97c0.283,0.846,0.839,1.373,1.666,1.58
		c2.02,0.505,3.328-0.46,3.916-2.897l0.118-0.487c-0.054-0.188,0.059-0.244,0.335-0.175c0.182,0.046,0.341,0.192,0.477,0.442
		c0.135,0.248,0.341,0.409,0.617,0.478c0.183,0.046,0.34-0.002,0.472-0.141c0.111-0.06,0.129,0.074,0.051,0.4
		c-0.118,0.487-0.288,0.788-0.511,0.905c-0.303,0.441-0.782,1.01-1.437,1.709c-0.52,0.128-1.16,0.356-1.919,0.683
		c-0.039,0.162-0.098,0.406-0.177,0.731c-0.098,0.405-0.098,0.706,0.001,0.905c0.098,0.196,0.109,0.457,0.03,0.782
		c0.539,0.995,1.175,1.586,1.913,1.771c1.274,0.319,2.221,0.001,2.845-0.941c-0.006-0.06,0.012-0.315,0.058-0.788l0.736-3.047
		l0.473-0.14c0.583,0.404,0.737,0.98,0.46,1.73c-0.28,0.748-0.375,1.348-0.289,1.802c0.183,0.046,0.396,0.27,0.641,0.676
		c0.243,0.404,0.437,1.315,0.584,2.731c0.288,0.416,0.596,0.86,0.922,1.329c0.326,0.469,0.716,0.761,1.177,0.876
		c0.183,0.046,0.355,0.044,0.513-0.001c0.157-0.047,0.281-0.059,0.374-0.036c0.511-0.906,0.69-1.853,0.539-2.838
		c0.728-0.593,1.882-1.338,3.465-2.235c0.479,0.033,1.217,0.002,2.215-0.092c0.997-0.096,1.518-0.44,1.565-1.03
		c0.11-0.059,0.258-0.065,0.443-0.018c0.828,0.207,1.163,0.634,1.006,1.286c-0.059,0.244-0.264,0.58-0.609,1.011
		c-0.349,0.43-0.531,0.685-0.551,0.767l-0.323,1.34l0.965,0.241c0.091,0.023,0.434,0.022,1.025-0.002
		c0.616-0.536,1.432-1.496,2.449-2.876c0.752-2.312,1.248-4.168,1.491-5.572c0.15-0.221,0.291-0.401,0.423-0.54
		c0.002-0.045,0.009-0.09,0.011-0.135c0.064,0.009,0.141,0.031,0.191,0.025c0.187-0.024,0.484-0.138,0.889-0.343
		c0.405-0.205,0.699-0.32,0.889-0.344c0.282-0.036,0.65,0.045,1.103,0.24c0.453,0.197,0.773,0.282,0.962,0.257l24.211-2.821
		l0.124,0.655l0.276,0.069l-0.094-0.76l0.188-0.022c0.252-0.065,0.474-0.121,0.719-0.184c0.002,0.002,0.003,0.004,0.005,0.007
		c0.283,0.846,0.672,2.062,1.166,3.652c0.959,2.479,2.415,5.944,4.364,10.395c0.118-0.488,0.113-0.877-0.011-1.166
		c-0.745-2.169-2.292-6.259-4.642-12.274l0.059-0.244c0.4,0.359,0.69,0.775,0.868,1.251c0.178,0.475,0.417,1.093,0.721,1.86
		c0.303,0.764,0.875,2.027,1.718,3.789c-0.007,0.429,0.131,1.067,0.416,1.913c0.276,0.826,0.715,2.151,1.313,3.963
		c0.1-0.078,0.375-0.181,0.877-0.314c-0.428-1.056-1.096-2.729-2.005-5.024c-0.158-0.557-0.225-1.09-0.198-1.601
		c-0.073-0.105-0.216-0.312-0.433-0.625c-0.305-0.766-0.672-2.063-1.107-3.895c0.958,1.274,1.396,2.288,1.313,3.042
		c0.399,0.358,1.007,1.069,1.824,2.135c-0.41-2.344-0.57-3.696-0.482-4.062c0.088-0.365,0.064-0.868-0.075-1.505
		c-0.31-0.336-0.68-0.816-1.115-1.442c-0.092-0.297-0.195-0.623-0.297-0.947c0.626-0.158,1.223-0.308,1.784-0.447
		c0.371,0.701,0.811,1.527,1.321,2.483c-0.185-0.046-0.561-0.098-1.133-0.154c0.455,1.75,1.187,4.174,2.194,7.269
		c0.716,1.472,1.412,3.238,2.084,5.302c1.097,1.91,2.709,4.726,4.834,8.446c0.02-0.082,0.059-0.244,0.118-0.488
		c-1.382-2.759-3.028-6.443-4.936-11.055c-0.473-0.464-0.946-1.529-1.421-3.199c-0.633-2.225-1.012-3.484-1.137-3.773
		c-0.073-0.105-0.053-0.187,0.059-0.244c0.395,0.788,1.068,2.032,2.023,3.736l-0.167,0.087c0.446,0.972,0.898,2.335,1.353,4.086
		c0.164,0.125,0.356,0.347,0.573,0.66c0.331,0.817,0.797,1.828,1.39,3.022c0.046-0.324,0.289-0.637,0.739-0.94l-5.312-13.733
		c0.38,0.438,0.933,1.18,1.656,2.223c-0.776-1.351-1.226-2.202-1.362-2.576c-0.058,0.065-0.138,0.139-0.265,0.231
		c-0.403-0.359-0.571-0.876-0.504-1.548c0.013-0.135,0.007-0.237,0.013-0.359c0.357-0.087,0.695-0.169,1.014-0.245
		c-0.051,0.231-0.065,0.472-0.033,0.724c0.342,0.602,0.929,1.396,1.766,2.38c0.072,0.102,0.291,0.202,0.66,0.294
		c0.079-0.326,0.208,0.352,0.385,2.034l0.996,0.12c0.071,0.103,0.149,0.187,0.232,0.252c0.08,0.062,0.168,0.106,0.261,0.13
		c-0.393,0.419-0.728,0.593-1.004,0.524c-0.276-0.069-0.428-0.151-0.454-0.243c-0.027-0.093-0.087-0.151-0.178-0.174
		c0.125,0.29,0.283,0.846,0.474,1.67c0.19,0.823,0.377,1.471,0.555,1.947c0.222-0.118,0.424-0.152,0.61-0.105
		c-0.068-0.534-0.197-1.212-0.386-2.035c-0.074-0.105,0.029-0.122,0.305-0.053c0.827,0.207,1.076,0.786,0.75,1.738
		c0.059-0.244,0.154-0.437,0.285-0.575l5.892,11.94c-0.375-0.869-0.938-2.173-1.688-3.912c0.039-0.164,0.287-0.186,0.748-0.071
		c-0.375-0.869-0.866-2.071-1.471-3.599c-0.092-0.023-0.256-0.151-0.493-0.382c-0.355-0.951-0.868-2.458-1.541-4.52
		c0.11-0.059,0.258-0.065,0.443-0.018c-0.276-0.069-0.384-0.225-0.326-0.469c-0.039,0.162-0.125,0.312-0.256,0.453
		c-0.138-0.638,0.005-1.033,0.432-1.184l-2.565-7.769c0.247-0.039,0.524-0.084,0.807-0.132c0.539,1.434,1.034,2.877,1.449,4.335
		c0.288,0.415,0.677,1.029,1.164,1.841c-0.048-0.616-0.276-1.49-0.682-2.625l0.177-0.731c0.184-0.097,0.39-0.114,0.61-0.083
		c-0.086,0.041,0.502,0.394,1.783,1.07c-0.929-1.009-1.564-2.432-1.907-4.267c0.319-0.059,0.619-0.114,0.964-0.179
		c2.519-0.477,3.849-0.725,3.99-0.743c0.141-0.018,0.248-0.109,0.325-0.271c0.074-0.162,0.255-0.261,0.536-0.298
		c0.187-0.024,0.423-0.055,0.705-0.091c0.294,0.064,0.534,0.084,0.723,0.059c0.092-0.012,2.492-1.084,7.196-3.217
		c-0.659,0.085-1.645,0.212-2.96,0.382C730.936,163.16,730.191,163.307,730.004,163.331z M650.069,163.312l0.128-1.131l0.276,0.069
		l0.011,1.166L650.069,163.312z M651.248,160.247l-0.415-0.104l0.353-1.463l0.415,0.104L651.248,160.247z M664.096,175.478
		l0.493,0.382l-0.198,0.209l-0.354-0.347L664.096,175.478z M663.969,176.608l2.069,0.517l-0.088,0.366l-2.069-0.517L663.969,176.608
		z M665.153,178.972c-0.185-0.046-0.244-0.105-0.177-0.173c0.065-0.07,0.006-0.128-0.177-0.173
		c-0.186-0.047-0.269-0.002-0.252,0.131c0.016,0.133-0.068,0.177-0.251,0.131c-0.185-0.046-0.368-0.092-0.552-0.138
		c-0.073-0.105-0.156-0.168-0.246-0.191l0.177-0.731c0.183,0.046,0.356,0.132,0.522,0.26c0.276,0.069,0.505,0.126,0.69,0.173
		c0.686,0.171,1.182,0.288,1.502,0.355C665.659,178.869,665.236,178.993,665.153,178.972z M682.314,146.046l-0.129-0.678
		l0.305-0.053l0.099,0.8L682.314,146.046z M685.803,138.26c0.039-0.164,0.536-1.416,1.492-3.762c1.146-2.73,1.948-4.639,2.408-5.73
		c0.085,0.452,0.401,1.564,0.948,3.339c-0.093-0.023-0.185-0.046-0.275-0.069c-0.073-0.106-0.202-0.18-0.385-0.226
		c-0.092-0.023-0.26,0.064-0.501,0.262l-0.118,0.487c-0.039,0.162-0.438,1.203-1.194,3.126c-0.756,1.921-1.299,3.358-1.626,4.311
		C685.914,139.407,685.666,138.828,685.803,138.26z M684.665,142.369l0.413,0.103l-0.265,1.097l-0.413-0.103L684.665,142.369z
		 M684.085,144.163l0.158,0.557l-0.305,0.053l-0.158-0.557L684.085,144.163z M694.793,150.471c-2.469,0.115-4.366,0.207-5.693,0.276
		c-0.588-0.127-1.036-0.272-1.342-0.438c-1.457,0.072-2.749,0.234-3.909,0.465c0.639-1.563,1.028-2.619,1.156-3.151
		c0.02-0.082-0.014-0.349-0.099-0.8c-0.014-0.349,0.055-0.633,0.206-0.853c0.267-0.709,0.678-1.597,1.228-2.665
		c0.02-0.082,0.002-0.215-0.049-0.4c0.169-0.303,0.414-0.716,0.736-1.237c0.354-0.257,0.321-0.524-0.099-0.8
		c0.13-0.141,0.354-0.257,0.669-0.35c0.255-1.057,0.565-2.143,0.933-3.256c0.365-1.117,0.894-1.889,1.583-2.318
		c0.039-0.164-0.188-0.435-0.68-0.816c0.079-0.325,0.203-0.64,0.374-0.94c0.079-0.325,0.137-0.569,0.177-0.731
		c0.425-0.152,0.665-0.136,0.718,0.051c0.224,1.089,0.626,2.654,1.207,4.695c0.02-0.082-0.049,0.201-0.206,0.853
		c0.04-0.164,0.326,0.468,0.858,1.894c0.507,1.936,1.217,4.654,2.126,8.156c0.183,0.046,0.45,0.155,0.798,0.329
		c-0.019,0.08-0.117,0.272-0.285,0.575c0.098,0.407,0.231,0.922,0.385,1.499C695.329,150.496,695.073,150.484,694.793,150.471z
		 M708.904,174.017l0.128,0.678l-0.275-0.069l-0.158-0.557L708.904,174.017z M711.733,169.039c0.039-0.009,0.069-0.016,0.107-0.026
		l0.012,0.056L711.733,169.039z M712.362,137.277l-0.295-0.591l0.167-0.088l0.434,0.626L712.362,137.277z M712.957,140.268
		c0.222-0.118,0.425-0.152,0.611-0.106c0.09,0.023,0.153,0.167,0.188,0.435c0.031,0.266,0.085,0.451,0.157,0.556
		C713.254,140.644,712.937,140.348,712.957,140.268z"/>
	<rect x="548.103" y="159.09" transform="matrix(0.9595 0.2817 -0.2817 0.9595 67.2348 -148.0375)" width="0.593" height="1.383"/>
	<rect x="547.518" y="160.785" transform="matrix(0.9595 0.2817 -0.2817 0.9595 67.7724 -147.7919)" width="0.593" height="1.978"/>
	
		<rect x="551.447" y="139.253" transform="matrix(0.7322 0.6811 -0.6811 0.7322 242.7856 -338.5316)" width="0.885" height="0.442"/>
	<rect x="121.924" y="156.471" transform="matrix(-0.0441 0.999 -0.999 -0.0441 287.5234 38.2714)" width="7.058" height="0.428"/>
	<path d="M126.805,169.697c-0.345,4.554-0.461,7.185-0.35,7.906l0.632,0.242c0.335-4.408,0.384-7.118,0.145-8.129L126.805,169.697z"
		/>
	<path d="M137.137,90.939c-0.35,1.412-1.204,3.018-2.568,4.811c0.271,0.3,0.472,0.592,0.603,0.883
		c-1.546,5.926-2.937,11.505-4.165,16.73c-1.332,1.085-2.077,3.407-2.234,6.966c0.006-0.14,0.155-0.348,0.456-0.622
		c0.251,0.727,0.355,1.658,0.305,2.795c-0.032,0.716-0.191,1.886-0.477,3.512c-0.286,1.629-0.445,2.8-0.476,3.511
		c-0.036,0.808,0.067,1.555,0.294,2.246l0.048,0C131.165,116.507,133.903,102.895,137.137,90.939z"/>
	<polygon points="155.818,176.555 153.125,184.3 153.496,184.528 156.195,176.567 	"/>
	<path d="M266.872,211.007c-0.072-0.003-0.13-0.006-0.19-0.008c0.266,0.139,0.535,0.227,0.807,0.239
		C267.387,211.233,267.18,211.157,266.872,211.007z"/>
	<path d="M247.649,95.958c0.627,0.028,0.999-0.089,1.114-0.358c0.454-0.793,0.842-1.315,1.168-1.574
		c-0.097-0.138-0.383-0.76-0.859-1.867c-0.41-0.152-0.972-0.45-1.686-0.887c-0.313-0.014-0.584,0.246-0.818,0.776
		c-0.274,1.48-0.409,2.15-0.403,2.014C246.111,95.28,246.608,95.912,247.649,95.958z"/>
	<path d="M241.193,85.919l0.018-0.406c-1.355-0.06-3.079,1.083-5.17,3.429c0.83,0.174,2.59-0.628,5.282-2.408
		C241.328,86.401,241.286,86.195,241.193,85.919z"/>
	<path d="M336.077,81.178c0.122-0.34,0.082-0.415-0.108-0.244C336.081,80.98,336.118,81.061,336.077,81.178z"/>
	<path d="M281.138,95.489c-0.079-0.166,0.011-0.416,0.268-0.744c-0.531-0.47-0.943-0.687-1.236-0.654
		c0.034,0.294,0.187,0.559,0.45,0.791C280.887,95.12,281.059,95.323,281.138,95.489z"/>
	<path d="M283.706,95.361c-0.248-0.089,0.274-0.18,1.568-0.277c0.261-0.327,0.296-1.014,0.111-2.061
		c-0.182-1.045-0.524-1.661-1.021-1.838c-0.62-0.223-1.13,0.224-1.531,1.341C282.299,94.015,282.589,94.961,283.706,95.361z"/>
	<path d="M352.107,142.666c0.878-3.459,1.264-6.404,1.16-8.832c0.151-0.108,0.305-0.216,0.458-0.321
		c0.656-2.965,1.515-7.433,2.57-13.402c0.046-0.262-0.003-0.371-0.143-0.327c-0.142,0.04-0.178-0.132-0.109-0.521
		c0.046-0.262,0.186-0.303,0.424-0.126c0.236,0.173,0.378,0.132,0.424-0.126c0.551-3.116,0.88-6.874,0.989-11.273
		c-0.284,0.082-0.531-0.028-0.745-0.332c0.161-3.185-0.129-5.715-0.868-7.584c-0.817-2.956-1.476-5.282-1.98-6.977
		c-0.436,2.464-0.991,3.706-1.662,3.723c-0.801-2.285-1.156-3.687-1.064-4.205c-0.268,0.756-0.761,1.271-1.477,1.546
		c-1.025-1.788-1.705-3.248-2.038-4.377c-0.115,0.648-0.532,1.111-1.249,1.386c-1.711-2.446-2.868-3.855-3.471-4.228
		c-0.023,0.128-0.005,0.401,0.057,0.813c-0.046,0.259-0.103,0.584-0.172,0.974l-3.93,2.92c-0.726-1.201-1.349-1.845-1.867-1.936
		c-0.261-0.046-0.668-0.018-1.22,0.086c-0.555,0.103-0.897,0.143-1.025,0.12c-0.279,0.151-0.517,0.291-0.756,0.431
		c0.126-0.472,0.184-0.7,0.16-0.633c0.134-0.373,0.415-0.762,0.841-1.17c-0.337,0.162-0.44,0.052-0.306-0.32
		c0.133-0.372,0.287-0.596,0.454-0.678l0.12,0.252c0.55-0.36,1.022-0.893,1.413-1.593c-0.204-0.212-0.239-0.506-0.105-0.878
		c-0.426,0.407-1,0.937-1.726,1.586c-0.724,0.653-1.274,1.118-1.659,1.401c-0.158-0.336-0.194-0.629-0.104-0.879
		c0.74-1.274,1.151-2.036,1.241-2.286c-0.033-0.291-0.07-0.583-0.105-0.879c-0.212,0.207-0.438,0.053-0.679-0.452
		c1.05-1.497,1.717-2.37,2.012-2.635c-0.005-0.002-0.005-0.006-0.011-0.008l0.066-0.187c0.044-0.122,0.386-0.491,1.027-1.101
		c0.64-0.612,0.981-0.978,1.026-1.104l0.334-0.93c-1.304,0.514-2.178,1.003-2.631,1.472c-0.446,0.47-0.763,0.954-0.94,1.448
		c-0.089,0.25-0.046,0.334,0.12,0.252l-0.066,0.187c-0.045,0.124-0.265,0.22-0.666,0.284c-0.4,0.068-0.624,0.165-0.669,0.287
		c-2.802,3.195-4.861,5.472-6.172,6.818c-1.311,1.351-1.991,2.09-2.035,2.211c-0.09,0.25,0.052,0.441,0.425,0.573l-0.066,0.186
		c-0.09,0.25-0.306,0.558-0.648,0.924c-0.342,0.37-0.537,0.615-0.58,0.737c-0.09,0.25-0.111,0.312-0.066,0.186l-0.068,0.187
		c-0.311,0.869-1.203,2.088-2.679,3.66c-1.475,1.573-2.474,2.895-3.001,3.965c-0.38,0.284-0.597,0.489-0.64,0.611
		c-1.421,2.011-2.157,3.081-2.201,3.203c-0.09,0.251-0.081,0.426,0.02,0.533c0.102,0.108,0.108,0.284,0.019,0.532
		c-0.09,0.25-0.797,1.046-2.119,2.39l-0.239-0.506c0.694-1.149,1.046-1.935,1.055-2.352c1.074-1.433,1.877-2.688,2.401-3.761
		c0.526-1.072,1.023-1.871,1.495-2.405c0.044-0.122,0.055-0.538,0.028-1.25c-0.168,0.081-0.309-0.111-0.425-0.573
		c-1.19,0.975-1.986,2.018-2.387,3.136c-0.045,0.124-0.014,0.24,0.085,0.346c0.103,0.108,0.108,0.284,0.019,0.532
		c-0.045,0.124-0.515,0.759-1.42,1.906c-0.9,1.149-1.376,1.785-1.42,1.908c-0.09,0.249-0.069,0.394,0.052,0.438
		c0.126,0.044,0.142,0.192,0.055,0.439l-0.321,0.306l-0.573,0.424c-0.089,0.25-0.257,0.715-0.501,1.396
		c-0.245,0.683-0.391,1.087-0.435,1.209c-0.624,1.74-2.668,4.505-6.134,8.304c-4.016,4.163-7.045,7.136-9.088,8.924
		c-0.932,0.647-1.63,1.027-2.09,1.139c-0.422-1.549-0.794-2.665-1.113-3.34c-0.197-2.172-0.244-3.798-0.135-4.882
		c-0.24-0.506-0.399-0.842-0.479-1.013c0.121-3.456,0.118-5.979-0.013-7.569c0.006-0.25-0.059-0.492-0.16-0.73
		c0.161-0.756,0.166-1.438,0.027-2.049l0.629,0.226l0.306,0.32l0.468-1.303c0.089-0.246,0.086-1.019-0.009-2.314l-0.731-0.893
		c-0.337,0.161-0.559,0.781-0.668,1.862c-0.051,0.521-0.152,0.938-0.296,1.263c-0.029-0.056-0.046-0.119-0.079-0.174
		c-0.244,0.016-0.421,0.038-0.633,0.057c-0.067-0.751-0.082-1.33-0.042-1.734c0.605-4.406,0.098-6.899-1.515-7.478
		c-0.247-0.09-0.478-0.031-0.693,0.171l-0.401,1.117c1.222,1.28,1.542,2.728,0.964,4.338l-0.035,0.098
		c-0.123,0.001-0.25-0.004-0.399-0.056c-0.056-0.02-0.134-0.116-0.227-0.268c-0.026-0.042-0.04-0.069-0.064-0.108
		c-0.329-0.588-0.853-1.864-1.578-3.847c-0.263,0.746-0.556,0.78-0.878,0.11l0.975-2.173c-1.046,0.189-1.923,0.299-2.632,0.331
		c-0.28-0.8-0.543-1.24-0.791-1.327c-1,2.068-2.26,2.476-3.78,1.257c-0.197-0.653-0.649-1.351-1.391-2.098l-0.589-0.001
		c0.009,0.706-0.091,1.158-0.296,1.364c0.404,0.484,0.728,0.852,1.007,1.155c-0.862,0.433-1.618,0.787-2.274,1.067
		c-0.256-0.411-0.709-0.635-1.381-0.651l-1.942,0.143c-0.067,0.094-0.115,0.162-0.178,0.251c-0.243-0.149-0.495-0.306-0.78-0.494
		c-1.031-0.645-2.072-0.87-3.116-0.678c-0.952-0.476-1.678-0.591-2.182-0.349c-2.861,1.367-4.984,2.438-6.372,3.207
		c-1.134,0.22-2.06,0.627-2.837,1.168l0.032-0.732l-0.579-0.026l-0.043,0.964l0.245,0.011c-0.805,0.65-1.396,1.491-1.763,2.534
		c-0.482,1.367-0.766,2.174-0.854,2.425c0.199,0.627,0.318,0.879,0.361,0.756c-0.087,0.247-0.202,0.276-0.345,0.088
		c-0.142-0.191-0.257-0.163-0.345,0.088c-0.043,0.122-0.222,1.317-0.53,3.587c-0.31,2.266-0.556,3.856-0.738,4.772
		c-1.343,5.397-2.35,9.446-3.02,12.146c-0.359,1.41-0.167,2.457,0.573,3.137c-0.043,0.122-0.048,0.435-0.015,0.938
		c0.033,0.499,0.028,0.812-0.016,0.938c-0.087,0.247-0.322,0.515-0.701,0.801c-0.437,1.242-0.744,2.113-0.92,2.612
		c-0.425,0.407-0.613,0.551-0.57,0.428c-0.087,0.247-0.052,0.539,0.11,0.877c0.161,0.335,0.199,0.627,0.11,0.878
		c-0.087,0.248-0.203,0.276-0.345,0.088c-0.142-0.191-0.258-0.163-0.346,0.088c-1.314,3.731-1.734,5.119-1.259,4.169
		c-0.015,0.833,0.002,1.186,0.045,1.064c-0.087,0.247-0.236,0.369-0.444,0.368c-0.208-0.005-0.356,0.117-0.445,0.368
		c-0.087,0.247-0.136,0.685-0.146,1.311c-0.012,0.625-0.06,1.06-0.148,1.311c-0.744,2.113-1.098,3.315-1.062,3.61
		c-0.957,2.317-1.45,4.312-1.477,5.98c2.672-7.587,4.052-11.504,4.139-11.751c0.205,0.21,0.264,0.44,0.176,0.691
		c0.182-0.916,0.571-1.827,1.172-2.733c-0.076-0.587-0.088-0.941-0.045-1.064l1.075-0.669l0.329-0.933
		c-0.323-0.674-0.565-1.178-0.725-1.513c0.752-0.154,1.196-0.418,1.327-0.791c-0.498-0.175-0.789-0.349-0.867-0.515
		c0.636-0.614,0.998-1.047,1.085-1.295c0.221,1.755,0.134,3.192-0.26,4.311c-0.087,0.247-0.153,0.434-0.197,0.56
		c-0.168,0.078-0.295,0.243-0.384,0.494c-0.087,0.247,0.149,0.96,0.715,2.138c0.22-0.623,0.45-0.89,0.702-0.801
		c-0.249,2.288-0.438,3.621-0.569,3.994c-0.219,0.621-0.537,0.928-0.954,0.922c0.05-0.542-0.115-0.669-0.493-0.383
		c-0.47,0.533-0.766,0.779-0.888,0.736l0.373,0.131c0.518,1.299,0.802,1.888,0.845,1.765c-0.131,0.373-0.282,0.598-0.449,0.68
		l-0.932-0.328c0.314,1.087,0.529,1.863,0.648,2.325c-0.824,4.322-1.399,7.544-1.727,9.666c0.307-0.871,0.605-1.327,0.899-1.361
		c0.177,1.878,0.288,2.755,0.331,2.633c-0.087,0.247-0.3,0.556-0.64,0.927c-0.34,0.369-0.553,0.676-0.642,0.927
		c-0.219,0.621-0.251,1.307-0.097,2.063c0.496,0.175,0.989,0.558,1.482,1.151c-0.175,0.495-0.245,0.89-0.208,1.184
		c0.649,0.927,1.077,1.706,1.274,2.336l-0.757,0.363c0.19,0.195,0.488,0.81,0.881,1.807c0.091-0.356,0.297-0.987,0.621-1.907
		c0.22-0.624,0.851-1.03,1.897-1.219c-0.175,0.495-0.295,1.433-0.36,2.809c-0.058,0.956-0.299,1.641-0.723,2.052
		c-0.125-0.044-0.257-0.163-0.4-0.351c-0.142-0.191-0.278-0.308-0.401-0.351l-0.854,2.425c-0.087,0.247-0.246,0.401-0.476,0.461
		c-0.23,0.057-0.368,0.149-0.412,0.274c0.123,0.043,0.364,0.057,0.719,0.044c0.352-0.017,0.593-0.001,0.718,0.043l-0.055-0.438
		c0.131-0.373,0.241-0.685,0.329-0.933c0.131-0.373,0.428-0.619,0.888-0.736c0.462-0.119,0.714-0.24,0.757-0.362
		c0.088-0.251,0.058-0.367-0.088-0.346c-0.147,0.017-0.175-0.098-0.088-0.346c0.088-0.25,0.258-1.029,0.509-2.337
		c0.252-1.31,0.421-2.089,0.508-2.337c0.175-0.498,0.572-0.637,1.195-0.417c0.161,0.335,0.154,0.752-0.021,1.25
		c0.993-2.028,1.821-4.181,2.486-6.463c-0.125-0.044-0.162-0.339-0.11-0.878c0.547-2.743,0.798-4.053,0.754-3.928
		c0.088-0.251,0.379-0.286,0.878-0.11c-0.131,0.373-0.244,0.89-0.339,1.558c-0.096,0.664-0.146,1.206-0.152,1.623
		c0.511-0.658,0.811-1.113,0.899-1.361c0.365,0.548,0.589,0.905,0.67,1.075c0.307-0.872,0.788-2.239,1.445-4.104
		c0.657-1.866,1.008-2.863,1.051-2.985c0.131-0.373,0.363-0.642,0.701-0.801c0.205,0.21,0.22,0.565,0.045,1.064
		c0.482-1.369,0.587-2.066,0.317-2.09c-0.273-0.028-0.34-0.225-0.209-0.598c0.22-0.624,0.626-1.388,1.227-2.293l0.187,0.066
		c0.462-0.119,0.879-0.32,1.261-0.604c-0.404,1.535-0.929,3.83-1.586,6.885c-0.656,3.052-1.006,4.642-1.05,4.767
		c-1.051,2.984-2.113,5.405-3.188,7.264c-0.087,0.248-0.305,1.256-0.645,3.023c-0.345,1.766-0.623,2.959-0.842,3.583
		c1.096-0.735,1.666-1.163,1.71-1.285c0.088-0.251,0.154-0.437,0.197-0.56c-0.037-0.295-0.033-0.503,0.011-0.625
		c0.131-0.373,0.386-0.703,0.767-0.987l0.363,0.756c-0.263,0.746-0.54,1.73-0.832,2.957c-0.293,1.224-0.525,2.086-0.7,2.584
		c1.454-2.145,2.225-3.341,2.312-3.589c0.526-1.492,1.233-4.005,2.129-7.532c0.893-3.531,1.73-6.205,2.512-8.026
		c0.131-0.373,0.401-0.943,0.811-1.706c0.408-0.767,0.658-1.272,0.745-1.519c0.044-0.126-0.004-0.284-0.148-0.471
		c-0.142-0.191-0.17-0.411-0.083-0.658c0.22-0.624,0.877-1.3,1.974-2.031c0.242,0.505,0.297,0.943,0.165,1.316
		c0.307-0.871,1.139-3.235,2.496-7.088c-0.283,0.805,1.37-2.696,4.954-10.485c0.145,0.411,0.287,0.785,0.423,1.075
		c0.424,1.555,0.687,2.769,0.792,3.647c0.831,1.98,1.439,3.601,1.827,4.859c1.665,2,2.527,3.008,2.589,3.031
		c0.063,0.022,0.099,0.213,0.111,0.565c0.013,0.356,0.121,0.642,0.323,0.853c-0.261,2.289,0.232,3.655,1.471,4.099
		c0.25,0.09,0.519,0.117,0.811,0.08c0.293-0.032,0.503-0.028,0.625,0.016c0.391-0.7,0.564-0.987,0.52-0.863
		c0.044-0.123-0.044-0.364-0.265-0.726c-0.219-0.358-0.288-0.661-0.198-0.911c0.044-0.122,0.141-0.192,0.287-0.213
		c0.147-0.017,0.398-0.031,0.751-0.045c0.355-0.011,0.597,0.005,0.72,0.049l1.087,1.651c1.395-0.759,2.185-1.595,2.371-2.511
		l0.849,1.145c0.251,0.09,0.846-0.012,1.791-0.302c0.945-0.29,1.542-0.392,1.79-0.303c0.25,0.09,0.289,0.176,0.118,0.253
		l-0.758,0.358c0.194,0.631,0.268,1.009,0.224,1.131l-0.134,0.372c-0.122-0.044-0.23,0.058-0.32,0.306l0.359,0.759l1.117,0.401
		c2.477-0.651,3.807-0.945,3.993-0.879c0.186,0.067,0.345-0.085,0.479-0.457l0.827-0.545c-0.45-0.298-0.611-0.64-0.477-1.011
		c7.3-5.501,12.084-9.456,14.348-11.867c1.324-1.344,3.937-4.818,7.841-10.422c0.435-0.624,0.838-1.205,1.227-1.767l-4.706,24.953
		c-0.598,10.202-1.042,16.485-1.323,18.845c-0.275,1.558-0.626,4.107-1.051,7.646c-0.425,3.54-0.655,5.407-0.69,5.602
		c-0.034,0.195,0.035,0.373,0.207,0.538c0.172,0.163,0.223,0.441,0.154,0.831c-0.046,0.259-0.103,0.584-0.172,0.974
		c-0.199,0.366-0.321,0.678-0.367,0.939c-0.023,0.128,0.343,3.742,1.097,10.837c0.161-0.91,0.402-2.273,0.723-4.09
		c0.191-1.842,0.31-2.891,0.356-3.15c0.046-0.262,0.037-0.596-0.023-1.008c0.046-0.261,0.092-0.52,0.138-0.779l0.493-0.515
		c0.201,0.812,0.279,1.448,0.259,1.943c0.104-0.23,0.267-0.434,0.509-0.603l0.481,0.688c0.19,2.71,0.263,4.933,0.227,6.668
		c0.987-3.309,1.68-5.728,2.087-7.263c0.212,0.304,0.229,0.976,0.045,2.017c-0.436,2.465-0.746,9.508-0.924,21.124
		c0.115-0.651,0.259-1.093,0.436-1.329l0.584,0.103c1.091-0.88,1.776-2.096,2.052-3.654c0.834-7.754,1.413-12.537,1.734-14.354
		l0.481,0.688c-0.069,0.389-0.16,0.907-0.275,1.558c-0.115,0.648-0.183,1.038-0.207,1.169c-0.138,0.779,0.139,3.369,0.834,7.779
		c0.631,1.718,0.91,3.173,0.835,4.365c0.701-0.949,1.446-2.891,2.235-5.83c0.695-2.422,1.502-3.952,2.419-4.593
		c0.213,0.304,0.275,0.717,0.183,1.237c0.322-1.819,0.879-4.598,1.675-8.34l0.998-5.647l0.275-1.558
		c0.413-0.062,1.08-0.813,2.006-2.256c0.106,0.15,0.316,0.288,0.629,0.413c0.312,0.121,0.523,0.259,0.631,0.413
		c-0.16,0.907-0.069,1.525,0.275,1.856c-0.125-0.825,0.047-2.537,0.506-5.132c0.632-0.559,1.256-1.052,1.868-1.477
		c0.046-0.262,0.122-1.083,0.236-2.469c0.109-1.386,0.19-2.21,0.236-2.468c0.069-0.389,0.73-2.818,1.989-7.28
		c1.257-4.466,1.91-6.826,1.956-7.085c0.046-0.261,0.099-0.955,0.167-2.079c0.063-1.128,0.121-1.821,0.167-2.08
		c0.046-0.261,0.735-2.28,2.074-6.059c0.856-3.332,1.51-5.893,1.961-7.686C351.414,143.548,351.777,143.009,352.107,142.666z
		 M250.261,154.488l-0.56-0.197l0.46-1.306l0.56,0.197L250.261,154.488z M250.684,129.476l0.898-1.361
		c-0.008,0.416,0.091,0.73,0.297,0.943C251.207,129.379,250.807,129.519,250.684,129.476z M252.316,125.438l-0.055-0.438
		l0.505-0.242l0.307,0.318L252.316,125.438z M253.683,170.37l-0.1-1.503l0.373,0.131l0.165,1.316L253.683,170.37z M255.58,159.925
		c-0.295,1.432-0.491,2.481-0.585,3.148c-0.498-0.175-0.658-0.513-0.484-1.009c0.176-0.499,0.208-1.185,0.098-2.063l1.621-3.413
		C256.09,157.379,255.876,158.49,255.58,159.925z M256.614,156.096l-0.373-0.131l0.329-0.933l0.373,0.131L256.614,156.096z
		 M259.488,156.27c-0.344,0.577-0.558,0.989-0.647,1.24c-0.263,0.746-0.44,1.286-0.574,1.723c0.333-1.927,0.904-3.431,1.746-4.455
		C259.882,155.151,259.708,155.646,259.488,156.27z M260.222,172.044l-0.56-0.197l0.263-0.746l0.56,0.197L260.222,172.044z
		 M261.208,169.246l-0.56-0.197l0.723-2.052l0.56,0.197L261.208,169.246z M329.471,110.447l-0.069-0.147
		c0.016-0.045,0.078-0.058,0.109-0.093C329.497,110.286,329.484,110.37,329.471,110.447z M333.08,96.927
		c-0.113-0.02-0.212-0.109-0.317-0.173c0.087-0.94,0.147-1.49,0.177-1.574c0.065-0.18,0.31-0.334,0.727-0.463
		C333.459,95.839,333.262,96.59,333.08,96.927z M333.854,93.586c-0.14-0.235-0.202-0.389-0.179-0.453
		c0.051-0.139,0.141-0.236,0.255-0.308C333.918,93.044,333.892,93.3,333.854,93.586z"/>
	<polygon points="322.428,92.434 321.753,91.712 321.455,92.262 322.165,92.788 	"/>
	<path d="M339.204,191.797l0.585-3.311c-0.527,0.71-0.86,1.455-0.997,2.234C338.701,191.238,338.838,191.597,339.204,191.797z"/>
	<polygon points="319.782,206.237 320.366,206.341 320.448,201.334 319.864,201.231 	"/>
	
		<rect x="317.458" y="201.475" transform="matrix(-0.9847 -0.1742 0.1742 -0.9847 595.3961 456.9921)" width="0.593" height="1.78"/>
	<rect x="319.382" y="206.65" transform="matrix(-0.9847 -0.174 0.174 -0.9847 598.1991 469.4969)" width="0.593" height="3.757"/>
	
		<rect x="329.17" y="212.383" transform="matrix(-0.9847 -0.1742 0.1742 -0.9847 616.7328 480.8653)" width="0.592" height="1.978"/>
	<rect x="319.014" y="212.388" transform="matrix(-0.9847 -0.174 0.174 -0.9847 596.7024 478.0831)" width="0.593" height="0.989"/>
	<path d="M256.916,182.621c0.088-0.25,0.039-0.406-0.148-0.471c-0.092-0.032-0.15-0.088-0.175-0.166
		c-0.257,0.959-0.496,1.771-0.707,2.371C256.354,183.818,256.698,183.242,256.916,182.621z"/>
	<polygon points="255.109,185.968 254.704,187.712 255.263,187.91 255.482,186.099 	"/>
	<path d="M249.66,175.243c-0.03-0.078-0.055-0.137-0.085-0.21C249.482,175.398,249.509,175.472,249.66,175.243z"/>
	
		<rect x="241.298" y="161.14" transform="matrix(-0.9432 -0.3322 0.3322 -0.9432 415.6212 395.2995)" width="0.593" height="1.977"/>
	<path d="M257.692,177.442c-0.349,1.568-0.669,2.906-0.962,4.035c0.109-0.197,0.261-0.404,0.498-0.634
		c0.318-0.307,0.521-0.587,0.608-0.834c-0.043,0.122-0.119-0.461-0.221-1.755c0.231-0.112,0.396-0.292,0.531-0.502
		C258.011,177.885,257.86,177.793,257.692,177.442z"/>
	<path d="M256.593,181.984c0.046-0.17,0.089-0.324,0.137-0.506c-0.037,0.067-0.088,0.137-0.11,0.2
		C256.575,181.803,256.568,181.904,256.593,181.984z"/>
	<rect x="246.625" y="139.633" transform="matrix(-0.719 0.6951 -0.6951 -0.719 521.6776 69.2127)" width="0.442" height="0.885"/>
	<rect x="241.988" y="159.478" transform="matrix(0.9432 0.3322 -0.3322 0.9432 66.9728 -71.3944)" width="0.593" height="1.385"/>
	<polygon points="247.693,136.181 248.067,136.312 248.965,134.951 248.406,134.754 	"/>
	<path d="M249.215,131.265c-0.131,0.373-0.244,0.89-0.339,1.558c-0.096,0.664-0.163,1.059-0.207,1.184l1.096-1.92L249.215,131.265z"
		/>
	<polygon points="249.347,182.681 249.392,183.745 249.831,183.69 249.72,182.813 	"/>
	
		<rect x="275.26" y="143.292" transform="matrix(-0.9432 -0.3322 0.3322 -0.9432 487.7418 370.7455)" width="0.593" height="0.791"/>
	<rect x="472.833" y="53.26" transform="matrix(0.833 0.5533 -0.5533 0.833 108.9504 -252.7159)" width="0.485" height="1.696"/>
	<path d="M504.313,67.466l3.218-4.843c-0.223-0.54-0.516-1.411-0.877-2.618c0.045-0.36,0.469-2.018,1.27-4.973
		c-0.494-0.72-1.189-1.567-2.085-2.549c-0.404-0.268-0.587-2.329-0.545-6.179c0.037-3.85-0.661-6.444-2.094-7.786
		c-0.09,0.135-0.337,0.357-0.737,0.672c-0.268,0.404-0.492,0.741-0.67,1.009c-0.674-0.448-1.368-1.005-2.084-1.676
		c-0.539,0.224-1.076,0.157-1.612-0.199c-1.748-1.162-2.981-2.075-3.698-2.747c-0.584,1.165-1.698,2.555-3.35,4.169
		c-0.314,0.178-1.722,0.404-4.23,0.678c0,0.581-0.356,1.116-1.071,1.613c-0.223,0.042-0.659,0.335-1.308,0.875
		c-0.648,0.538-1.757,0.963-3.322,1.281l-3.214,5.712c0.044,0.221,0,0.582-0.134,1.075c-2.008,3.897-3.458,7.098-4.35,9.608
		c-0.446,1.253-0.468,2.305-0.062,3.157c-0.359-0.048-0.761-0.025-1.209,0.069c-0.045,0.356,0.025,0.983,0.205,1.88l0.136,0.671
		l-0.536,0.807c-0.45,0.087-0.919-0.224-1.412-0.938c-0.355,0.535-0.981,1.477-1.875,2.823c0.584-0.002,0.94,0.043,1.075,0.133
		c0.806,0.536,1.053,1.182,0.741,1.946c-0.046,0.356-0.122,0.545-0.234,0.571c-0.113,0.02-0.256,0.166-0.436,0.438
		c-0.311,1.922-1.486,7.923-3.531,18.001c-1.247,4.208-2.401,10.613-3.462,19.209c0.045-0.36-0.201-0.134-0.737,0.673l-1.925,14.709
		c-0.662,5.373-1.395,10.119-2.194,14.239c-0.178,0.268-0.312,0.469-0.402,0.605c0.133,0.088,0.247,0.354,0.337,0.805
		c-0.934,4.612-1.443,8.148-1.528,10.612c-0.223,0.624-0.329,3.56-0.322,8.797c-0.356,1.117-0.779,3.066-1.266,5.844
		c0.044,0.221,0.269,0.47,0.672,0.738c-0.088,0.132-0.381,0.423-0.871,0.874c0.222-0.048,0.514-0.049,0.873-0.002
		c-0.088,0.714-0.354,1.409-0.802,2.083c0.179,0.311,0.314,0.69,0.404,1.141c-0.088,1.295-0.241,3.132-0.462,5.507
		c0.444-3.585,1.111-6.92,1.999-10.009c0.09-0.135,0.235-0.134,0.436,0c0.202,0.134,0.415,0.176,0.639,0.134
		c-0.577,4.653-1.369,11.685-2.385,21.087c-0.839,8.55-1.384,17.975-1.635,28.272c-0.04,3.266-0.122,8.058-0.247,14.37
		c-0.043,0.94,0.161,1.947,0.609,3.021l0.67-1.009c-0.226-1.122-0.319-2.732-0.276-4.834c0.268-0.403,0.626-0.942,1.072-1.613
		c0.045-0.942-0.139-2.127-0.542-3.558c0.18-0.271,0.448-0.674,0.804-1.21c-0.136-0.09-0.315-0.113-0.538-0.066
		c0.046-0.361,0.065-0.829,0.065-1.411c0.448-0.093,0.828-0.226,1.141-0.404c-0.135-0.09-0.537-0.066-1.208,0.069
		c-0.091-0.451,0.019-1.055,0.333-1.813c0.401-0.898,0.85-1.279,1.342-1.144c0.176-1.436,0.286-3.493,0.326-6.178
		c-0.046-0.225-0.203-0.425-0.471-0.603c-0.088,0.132,0.18-0.271,0.804-1.21l-0.739-0.2c0.223-0.63,0.733-2.129,1.537-4.501
		c-0.138-1.836,0.107-3.517,0.731-5.037c-0.045-0.225-0.069-0.628-0.069-1.209c-0.003-0.583-0.048-1.39-0.138-2.417
		c-0.088,0.132,0.201-0.158,0.872-0.874c-0.046-0.226-0.339-0.516-0.875-0.872c0.09-0.136,0.18-0.272,0.268-0.404
		c-0.045-0.224-0.021-0.404,0.066-0.536l1.007-0.203c0,0.581,0.271,1.342,0.809,2.281c0.316,0.4,0.18,0.891-0.4,1.477
		c-0.181-0.315-0.407-0.851-0.674-1.61c0.044,0.22,0.203,1.007,0.474,2.349l-0.264,3.023c0.045,0.22,0.182,0.602,0.405,1.141
		c-0.221,1.206-0.353,2.862-0.395,4.969c0.134,0.671,0.203,1.589,0.205,2.753c-0.136,0.491-0.356,1.117-0.668,1.882
		c-0.131,3.401-0.256,8.259-0.38,14.571c0.488-2.778,1.175-6.296,2.065-10.546l0.672-0.135l-2.635,32.84
		c0.044,0.22,0.764,1.475,2.154,3.757c0.09-0.136,0.29-0.293,0.603-0.471c0.578-3.495,1.352-8.889,2.326-16.187
		c0.395-4.969,0.942-12.65,1.643-23.034l0.402-0.605c0.628,0.804,0.874,1.453,0.741,1.946c-0.307,3.669-0.791,9.066-1.452,16.184
		c-0.088,0.133-0.202,0.448-0.334,0.942l-1.703,27.935c1.019-1.248,1.312-2.302,0.876-3.164c0.09-0.136,0.283-0.584,0.583-1.343
		c0.257-4.48,0.667-9.631,1.235-15.448c0.176-0.265,0.518-0.514,1.034-0.744l2.012-19.064l0.213,0.119
		c0.192,3.224,0.053,7.978-0.42,14.255c0.626-0.942,1.318-2.422,2.075-4.436c1.729-9.315,2.346-16.948,1.844-22.9
		c-0.581,0-0.941,0.247-1.073,0.741c-0.268,0.984-0.558,1.564-0.87,1.747c-0.006-2.911,0.327-4.724,0.998-5.44
		c0.626,0.22,1.321-0.676,2.078-2.69c-0.045-0.225-0.069-0.628-0.069-1.208l1.007-0.203c0.045,0.22-0.086,1.005-0.396,2.353
		c0.132,0.088,0.18,0.31,0.136,0.671c-0.167,4.34-0.421,10.852-0.758,19.54c0.271,0.762,0.474,1.769,0.613,3.023l2.288-25.462
		c0.178-2.017,1.376-10.233,3.602-24.65c0.172-1.434,0.79-6.923,1.858-16.46c0.316-0.762,0.789-2.192,1.421-4.292
		c0.55-3.123,0.855-6.023,0.916-8.698c0.048-0.358-0.015-0.982-0.189-1.87c0.18-0.271,0.447-0.673,0.803-1.209
		c0.707-5.153,1.33-10.463,1.861-15.924c0.222-0.629,0.579-1.459,1.07-2.486c-0.048-1.39,0.063-3.451,0.329-6.182
		c2.223-11.513,3.956-19.667,5.206-24.459c2.315-9.903,4.834-17.631,7.559-23.187C502.211,68.004,503.103,67.824,504.313,67.466z
		 M460.997,190.404l-1.142-0.469l0.134-0.201l1.075,0.133L460.997,190.404z M461.637,213.501l0.201-0.739l0.335-0.068l0.002,0.873
		L461.637,213.501z M469.427,213.154c0.267,0.177,0.515,0.242,0.738,0.2l0.203,1.007
		C469.877,214.225,469.561,213.825,469.427,213.154z M491.391,44.041l-0.739-0.2l0.134-0.202l0.872-0.001L491.391,44.041z"/>
	<polygon points="250.416,199.121 249.898,198.197 249.591,198.507 250.006,199.329 	"/>
	<path d="M255.237,219.472c0.053,0.053,0.215,0.16,0.436,0.296C255.486,219.663,255.329,219.563,255.237,219.472z"/>
	<polygon points="259.475,223.877 260.298,223.874 260.4,223.565 259.576,223.569 	"/>
	<polygon points="249.256,216.411 250.292,217.847 250.599,217.537 249.564,216.101 	"/>
	<path d="M218.925,169.285c-0.056-0.149-0.152-0.306-0.329-0.482C218.687,168.894,218.801,169.07,218.925,169.285z"/>
	<rect x="260.87" y="218.992" transform="matrix(-0.7102 -0.704 0.704 -0.7102 292.6103 558.7282)" width="0.873" height="0.291"/>
	<rect x="262.664" y="223.76" width="0.822" height="0.206"/>
	
		<rect x="264.489" y="225.335" transform="matrix(-0.7101 -0.7041 0.7041 -0.7101 294.0022 572.1489)" width="0.582" height="0.436"/>
	<path d="M267.265,217.053l1.029-0.004c-0.139-0.138-0.38-0.444-0.724-0.923c-0.346-0.478-0.587-0.787-0.724-0.923
		c-0.139-0.138-0.276-0.171-0.412-0.101c-0.138,0.068-0.308,0.001-0.515-0.204c-0.139-0.138-0.226-0.393-0.261-0.77
		c-0.037-0.376-0.123-0.635-0.261-0.771c-5.786-5.188-9.399-8.499-10.846-9.933c-0.278-0.547-0.451-0.857-0.519-0.924l-0.617,0.002
		c-0.347-0.615-0.658-1.128-0.933-1.539c-0.274,0.276-0.48,0.413-0.616,0.414c0.065-0.617-0.35-1.372-1.244-2.258
		c0.001,0.549-0.101,0.79-0.306,0.722c-0.139-0.138-0.448-0.374-0.929-0.716c-0.413-0.409-0.656-0.65-0.723-0.717
		c-0.139-0.138-0.31-0.411-0.518-0.821c-0.056-0.11-0.106-0.189-0.16-0.281l0.881,0.484l0.307-0.31l-0.928-0.511l-0.286,0.289
		c-0.136-0.231-0.266-0.427-0.383-0.543c-0.173-0.171-0.207-0.308-0.105-0.411c0.102-0.103,0.118-0.191,0.051-0.258
		c-0.679,0.002-1.116-0.097-1.327-0.297c-0.151-0.174-1.475-1.588-3.992-4.258c-2.93-3.109-5.117-5.38-6.563-6.814
		c-0.345-0.342-1.068-0.956-2.169-1.842c-1.102-0.888-1.687-1.365-1.756-1.433c-0.126-0.125-0.228-0.275-0.343-0.41
		c0.106-0.008,0.212-0.018,0.317-0.029c0.041-0.035,0.068-0.07,0.114-0.104c0.168-0.126,0.308-0.19,0.415-0.186
		c-0.107-0.005-0.215-0.009-0.324-0.014c-0.113,0.131-0.277,0.192-0.495,0.182c-0.061-0.003-0.121-0.027-0.182-0.037
		c-0.322-0.411-0.616-0.85-0.846-1.352c0.135-0.001,0.205-0.206,0.203-0.618c-3.785-2.796-6.539-5.049-8.261-6.755
		c0.069,0.205-0.034,0.309-0.307,0.31c-0.206-0.205-0.621-0.545-1.239-1.023c-0.622-0.478-0.999-0.785-1.136-0.921
		c-0.139-0.138-0.311-0.41-0.518-0.82c-0.069-0.136-0.128-0.234-0.189-0.34c0.083,0.218,0.037,0.407-0.14,0.567
		c-0.518-0.427-1.052-0.871-1.605-1.333c-0.389-0.576-0.714-1.006-0.958-1.247l-0.105-0.515l0.617-0.002
		c0.55,0.821,0.964,1.436,1.243,1.846c-0.9-1.712-1.901-3.114-3.002-4.206c-0.139-0.138-0.622-0.546-1.446-1.228
		c-0.828-0.683-1.308-1.092-1.446-1.229l-12.731-11.836c0.443-0.328,0.958-0.721,1.624-1.247c-1.445-1.37-2.73-2.902-3.858-4.547
		c5.344-3.408,9.479-6.039,12.38-7.877c0.413-0.196,1.028-0.646,1.838-1.35c0.811-0.701,1.317-1.102,1.527-1.202
		c0.207-0.098,0.467-0.222,0.778-0.37c0.463-0.092,0.747-0.165,0.852-0.214c0.311-0.148,2.293-1.596,5.942-4.35
		c1.196-0.693,2.105-1.191,2.727-1.486c1.719-1.199,2.991-1.994,3.823-2.39c0.207-0.098,2.084-1.497,5.631-4.203
		c4.169-2.998,7.139-5.044,8.907-6.14c-0.918-0.327-1.431-0.465-1.533-0.416c-0.209,0.099-0.908,0.497-2.104,1.191
		c-1.195,0.696-1.898,1.093-2.104,1.191c-0.209,0.099-0.352,0.262-0.433,0.492c-0.082,0.23-0.227,0.394-0.434,0.492
		c-0.209,0.099-0.453,0.12-0.733,0.062c-0.283-0.056-0.476-0.06-0.578-0.012c-0.209,0.099-0.471,0.352-0.786,0.755
		c-0.316,0.407-0.528,0.633-0.629,0.681c-2.551,1.593-4.449,2.815-5.698,3.662c-1.768,1.096-3.895,2.107-6.378,3.032
		c0.059-0.41,0.166-0.586,0.319-0.533c0.774-0.24,1.249-0.847,1.423-1.821c0.207-0.098,0.294-0.045,0.267,0.159
		c-0.031,0.205,0.058,0.259,0.266,0.16c0.207-0.099,0.301-0.301,0.282-0.611c-0.021-0.306,0.022-0.487,0.126-0.537
		c1.926-1.297,3.359-2.294,4.298-2.997c1.819-0.989,3.611-2.032,5.379-3.129c2.286-1.34,3.59-2.341,3.913-3.004
		c-0.357-0.212-0.455-0.419-0.296-0.622c0.311-0.148,0.726-0.408,1.248-0.784c0.52-0.373,0.859-0.599,1.015-0.673
		c0.156-0.074,0.639-0.462,1.449-1.165c0.811-0.701,1.371-1.191,1.686-1.469c0.314-0.275,0.422-0.517,0.323-0.726
		c2.089-1.756,3.679-2.955,4.772-3.603c-0.246-0.518-0.599-0.859-1.059-1.023c5.494-5.025,9.252-8.084,11.279-9.175
		c0.37-0.557,0.584-1.04,0.645-1.451c0.681-0.705,1.387-1.357,2.119-1.961l-1-0.097c-0.209,0.099-0.81,0.703-1.808,1.813
		c-0.997,1.112-1.551,1.691-1.653,1.739c-0.209,0.099-0.831,0.395-1.867,0.887c-0.883,0.548-1.431,0.871-1.637,0.969
		c-0.209,0.099-0.313,0.214-0.315,0.341c-0.004,0.13-0.058,0.218-0.16,0.266l-0.245,0.689c-1.291,0.232-2.461,0.979-3.512,2.241
		c-0.203-0.157-0.635-0.395-1.296-0.719c0.478-0.862,0.877-1.496,1.193-1.903c-0.52,0.247-1.007,0.288-1.466,0.125
		c0.108-0.305,0.085-0.485-0.066-0.541c-2.862,1.741-5.018,3.086-6.476,4.032c-4.574,2.684-8.235,4.743-10.988,6.176l-0.474,0.607
		c-0.622,0.296-1.191,0.441-1.704,0.428c3.34-2.604,5.06-3.931,5.164-3.981c2.755-1.69,4.835-2.932,6.239-3.728
		c2.293-1.596,4.063-2.819,5.313-3.669c-5.819,3.275-9.972,5.503-12.462,6.686l-0.23-0.082c0.322-0.659,0.638-1.066,0.949-1.214
		c7.172-4.172,11.54-6.882,13.107-8.137c-0.104,0.05-0.234,0.048-0.385-0.008c-0.154-0.053-0.385-0.008-0.696,0.14
		c-0.209,0.099-0.364,0.238-0.471,0.415c-0.106,0.178-0.264,0.316-0.471,0.415c-4.356,2.07-7.549,3.778-9.579,5.125l-0.304-0.237
		c0.74-1.114,2.06-2.218,3.958-3.311c1.895-1.092,3.133-1.966,3.712-2.623c0.311-0.148,0.648-0.242,1.007-0.288
		c0.164-0.459,0.171-0.844,0.023-1.155c-1.846,0.373-2.994,0.622-3.503,0.76c-0.153,0.151-1.304,0.871-3.491,2.182
		c-11.331,6.658-19.148,11.074-23.456,13.247c-4.877,2.318-8.503,3.917-10.883,4.791c-1.808,0.98-4.486,2.46-7.971,4.404
		c0-0.014-0.002-0.028-0.001-0.042c0.071-2.258,0.567-4.408,1.396-6.36c-0.249-0.718-0.447-1.461-0.602-2.219
		c-1.06,1.617-2.06,3.106-2.964,4.392c0.017-0.567,0.052-1.223,0.096-1.922c0.844-0.782,1.755-1.633,2.75-2.57
		c0.025-0.021,0.056-0.052,0.082-0.075c-0.149-0.765-0.254-1.547-0.303-2.344c1.514-1.695,3.451-4.083,5.825-7.186
		c-0.215-0.009-0.587-0.159-1.116-0.454l0.514-0.587c-2.532,2.145-5.967,5.751-10.289,10.795c0.095-1.06,0.205-2.192,0.345-3.464
		c-0.127-0.146-0.187-0.295-0.182-0.44c0.774-3.89,1.071-7.142,0.893-9.756c-0.131-0.004-0.232,0.068-0.3,0.208
		c-0.072,0.143-0.236,0.21-0.496,0.203c-0.523-0.015-0.691-0.89-0.505-2.623c0.227-1.005,0.396-1.722,0.507-2.154l-2.551-1.344
		c-0.006,0.06,0.006,0.116-0.005,0.177c1.029,0.465,1.519,1.494,1.469,3.086c-0.027,0.869-0.108,1.301-0.236,1.297
		c-0.359-1.023-0.815-2.09-1.368-3.193c-0.553-1.103-1.347-1.812-2.38-2.134c-0.005,0.145,0.053,0.364,0.175,0.657
		c0.119,0.295,0.18,0.515,0.175,0.657l0.594-0.2c0.651,0.019,1.279,0.764,1.888,2.229c-0.927,0.408-1.459,0.684-1.592,0.823
		c-2.501-3.551-4.009-5.406-4.524-5.567c0.192-0.201,0.338-0.421,0.443-0.657l-0.267-0.141c-0.474,0.464-1.246,0.784-2.334,0.952
		c-2.361,0.366-3.611,0.621-3.743,0.76c-1.455,0.537-2.51,0.941-3.17,1.211c-0.15,0.576-0.297,1.078-0.439,1.509
		c-0.072,0.147-0.156,0.276-0.234,0.413c-0.282-0.676-0.537-1.352-0.735-2.025c-0.881-1.408-1.875-2.135-2.974-2.182
		c-1.416-0.06-2.472,0.58-3.161,1.92c-1.372,2.378-2.058,3.644-2.065,3.794l-0.104,2.279c-0.514,0.891-0.777,1.489-0.791,1.793
		c-0.037,0.82,0.624,1.794,1.976,2.92c-0.686,0.409-1.23,0.823-1.628,1.239l0.803-0.629c0.501,0.595,0.753,0.966,0.748,1.109
		c-0.14,0.288-0.152,0.648-0.034,1.086c0.38-0.997,0.675-1.718,0.889-2.181c0.157,0.121,0.314,0.25,0.471,0.374
		c-0.049,0.224-0.157,0.405-0.341,0.532c0.651,0.019,0.824,0.751,0.519,2.189c0.747,5.239,1.126,7.787,1.131,7.641
		c-0.027,0.869-0.482,2.887-1.364,6.047c0.133-0.139,0.387,0.157,0.755,0.892c-1.091,5.62-2.136,9.795-3.134,12.516
		c-0.344,1.288-0.67,2.503-0.982,3.66l-19.915,3.094c-0.004-0.004-0.012-0.006-0.016-0.01l-0.126,0.026l0.057-0.07
		c-0.129-0.115-0.27-0.219-0.453-0.289c-0.218-0.08-0.403-0.125-0.548-0.131c2.994-0.869,5.378-1.269,7.148-1.194
		c-0.442-0.019-1.103-0.117-1.981-0.299c-0.878-0.178-1.394-0.274-1.539-0.28c-0.297-0.013-1.151,0.096-2.564,0.319
		c-1.417,0.227-2.27,0.331-2.564,0.319c-0.297-0.013-0.363-0.156-0.202-0.437c6.181-0.922,9.187-1.431,9.034-1.529
		c0.252,0.026,0.479,0.098,0.668,0.23c0.215,0.154,0.395,0.231,0.543,0.237c0.294,0.013,1.228-0.194,2.8-0.629
		c1.572-0.432,2.651-0.637,3.242-0.612c-0.839-1.033-0.661-1.741,0.54-2.118c-0.297-0.013-0.522,0.051-0.673,0.185l-0.635-0.669
		l-24.724,2.584c-0.74-0.032-1.176-0.191-1.308-0.484c1.954-0.773,3.599-1.131,4.926-1.074l-1.983,0.011
		c-0.006,0.042-0.013,0.082-0.019,0.124c-0.014-0.039-0.016-0.084-0.029-0.123l-2.403,0.013c-0.232-1.435-0.276-3.651-0.139-6.643
		c0.917-0.673,1.389-1.295,1.416-1.867c-0.572-0.452-0.694-1.025-0.364-1.728c0.139,0.15,0.357,0.229,0.654,0.242l0.245-5.341
		c0.139,0.149,0.205,0.366,0.192,0.65c0.052-1.139,0.091-1.994,0.117-2.564l0.202,0.437c1.139-5.518,2.065-9.617,2.78-12.299
		c0.217-1.56,0.269-2.698,0.156-3.419c0.705-2.539,1.308-4.367,1.803-5.49c1.107-4.803,2.362-9.674,3.772-14.612
		c-1.112,1.665-1.91,2.989-2.398,3.965c0.046-0.995,0.289-2.306,0.734-3.93c0.441-1.62,0.754-2.784,0.936-3.492
		c0.178-0.706,0.501-1.263,0.963-1.672c0.738-3.251,1.189-5.014,1.351-5.295c0.867-2.816,1.462-6.146,1.787-9.986
		c0.033-0.711,0.441-1.62,1.233-2.731c-0.142-0.147-0.509-0.236-1.096-0.261c-1.034-0.044-1.516-0.777-1.451-2.203
		c0.095-2.08,0.194-3.046,0.297-2.914c-0.053-0.173-0.186-0.429-0.458-0.839c-0.347-0.514-0.516-0.842-0.509-0.986
		c0.013-0.283,0.247-0.558,0.703-0.826c0.346-1.125,0.041-2.567-0.911-4.321c-0.503,0.076-0.748,0.126-0.777,0.156
		c-0.209-0.037-0.332-0.129-0.324-0.309c0.01-0.214-0.134-0.327-0.428-0.34c-0.443-0.019-0.685,0.436-0.727,1.361
		c-0.043,0.928-0.433,1.373-1.17,1.341c-0.297-0.013-0.518-0.022-0.664-0.028c0.957-1.527,1.18-3.231,0.677-5.109
		c2.382-3.608,3.566-5.27,3.553-4.987l0.039-0.855c-0.74-0.032-1.391-0.343-1.952-0.94c0.032-0.71-0.093-1.215-0.374-1.515
		c-1.341,0.23-2.374,0.186-3.097-0.132c2.369-3.324,3.544-4.773,3.524-4.346c0.013-0.283-0.123-0.574-0.403-0.874
		c-0.918,0.677-1.829,1.206-2.733,1.596c-0.95,1.389-1.881,2.348-2.792,2.878c-0.149-0.006-0.212-0.223-0.192-0.65
		c0.006-0.14,0.317-0.484,0.934-1.031c0.614-0.543,0.931-0.957,0.944-1.244c0.02-0.427-0.123-0.574-0.423-0.446
		c0.191-0.989,0.161-1.92-0.094-2.787c-0.598,0.119-0.968,0.103-1.106-0.047c1.095-1.378,1.801-2.278,2.118-2.693
		c2.624-2.457,3.95-3.969,3.976-4.54c0.065-1.422-0.642-2.168-2.115-2.231c-2.067-0.088-3.717,2.056-4.949,6.426
		c-0.337,0.842-0.885,1.534-1.647,2.071c-0.259-0.867-0.754-1.317-1.49-1.348c-0.149-0.006-0.557,0.05-1.227,0.162
		c-0.67,0.116-1.081,0.168-1.227,0.162c-0.149-0.006-0.302,0.095-0.457,0.302c-0.158,0.207-0.385,0.304-0.678,0.292
		c-0.442-0.019-0.66-0.098-0.654-0.242c-0.336,0.842-0.799,1.251-1.386,1.225c-0.297-0.013-0.37-0.016-0.221-0.01
		c0.003-0.071-0.034-0.126-0.107-0.165c-0.06,0.084-0.979,0.24-2.788,0.47l-1.676,2.712c-0.297-0.013-0.405-0.087-0.322-0.228
		c0.079-0.137-0.028-0.215-0.322-0.228c0.145,0.006-0.314,0.345-1.376,1.012l0.02-0.427c2.414-4.319,4.549-7.369,6.404-9.147
		l0.049-1.068c-0.297-0.013-0.588-0.095-0.875-0.251c-2.505,3.035-5.606,7.827-9.303,14.376c-1.794,3.637-3.104,6.435-3.931,8.396
		C93.974,60.388,86.08,73.04,83.032,78.333c-5.686,11.178-9.687,19.498-12.005,24.965l11.204-22.002
		c0.132,0.293,0.1,1.004-0.098,2.137l9.421-16.94l-0.049,1.069c-0.006,0.143-3.144,5.72-9.411,16.726
		c-0.188,0.848-0.29,1.486-0.309,1.914c-1.092,1.238-1.64,1.93-1.646,2.071c0.294,0.012,0.436,0.162,0.423,0.446
		c-1.419,1.94-2.531,3.605-3.332,4.996l0.403,0.874c-1.34,0.23-1.746,0.996-1.214,2.303c-0.637,0.972-1.112,1.665-1.425,2.08
		c0.026-0.567-0.162,0.281-0.56,2.545c-0.317,0.415-0.696,0.686-1.145,0.807c-3.579,7.127-5.626,11.535-6.147,13.226
		c-2.018,5.34-3.413,8.347-4.182,9.027c-1.907,2.916-3.206,5.43-3.892,7.541c0.885,0.038,0.846,0.892-0.117,2.564
		c-0.284-0.296-0.572-0.453-0.865-0.465c-0.007,0.144-0.096,0.424-0.26,0.845c-0.02,0.427-0.033,0.715-0.039,0.855
		c0.158-0.277,0.389-0.481,0.693-0.613c-0.007,0.144-0.188,0.848-0.54,2.118c-0.284-0.296-0.575-0.379-0.875-0.251
		c0.436,0.163,0.72,0.389,0.856,0.679c-0.475,0.695-0.798,1.251-0.963,1.672l-0.029,0.641l-0.443-0.019l0.029-0.641l0.442,0.019
		l-0.413-0.66l-0.462,0.408c-0.013,0.287-0.026,0.572-0.039,0.855c-0.317,0.415-0.624,0.689-0.924,0.817
		c0.145,0.006,0.37-0.054,0.674-0.185c0.3-0.128,0.525-0.192,0.673-0.185l-0.029,0.641c-0.812,1.538-1.382,2.724-1.715,3.566
		c-0.534,1.978-1.243,2.944-2.128,2.906c-0.148-0.006-0.297-0.013-0.442-0.019c0.508-1.403,0.845-2.352,1.017-2.846
		c0.168-0.492,0.338-0.95,0.506-1.371c0.294,0.013,0.436,0.163,0.423,0.446c-0.155,0.138,0.152-0.134,0.924-0.817
		c-0.397-1.014-0.51-1.804-0.335-2.369c-1.959,4.058-3.427,7.063-4.403,9.018l-8.618,23.611c0.607-0.402,1.063-0.667,1.367-0.798
		c1.355-3.796,2.535-6.957,3.537-9.483c0.482-0.836,0.805-1.464,0.973-1.885c0.294,0.012,0.439,0.092,0.433,0.233
		c-3.072,9.006-4.579,12.865-4.52,11.583l-0.068,1.496c0.294,0.013,0.578,0.239,0.856,0.679c0.165-0.421,0.475-0.695,0.924-0.817
		l0.423,0.446l-1.155,1.021c-0.136-0.293-0.35-0.443-0.644-0.456c0.497,2.018,0.646,3.594,0.449,4.729
		c-0.02,0.427,0.04,0.714,0.182,0.864c-1.959,4.054-2.955,6.437-2.988,7.152l0.394,1.087l0.673-0.185
		c1.94-3.63,3.318-6.355,4.143-8.173c0.607-0.402,1.139-0.667,1.588-0.789c1.367-0.798,1.974-1.2,1.829-1.206
		c1.179,0.05,1.754,0.429,1.721,1.144c-0.052,1.138-0.695,2.252-1.926,3.343c-0.006,0.14-0.214,0.596-0.617,1.365
		c-0.406,0.766-0.61,1.222-0.617,1.366c-0.046,0.995,0.447,1.518,1.48,1.562c1.571-2.074,2.752-3.667,3.544-4.773l0.413,0.66
		c-0.089,1.955-0.19,2.906-0.296,2.864c0.436,0.81,0.833,1.428,1.191,1.863c-0.163,0.277-0.306,1.761-0.431,4.499
		c0.281,0.296,0.565,0.522,0.856,0.679c0.931-0.961,1.485-1.794,1.666-2.498c1.817-4.205,3.136-7.219,3.96-9.037
		c0.423,0.446,0.618,1.023,0.586,1.738c-0.091,1.993-0.982,3.667-2.668,5.025l0.856,0.679l0.885,0.038
		c3.065-2.438,5.312-6.341,6.742-11.702c0.197-1.136,0.316-2.058,0.348-2.768c1.187-3.375,2.192-5.971,3.017-7.793
		c0.744-3.394,1.659-5.602,2.742-6.626c1.079-1.024,2.801-1.487,5.162-1.386c-0.149-0.006,0.198,0.51,1.038,1.543
		c11.981-3.483,18.931-5.187,20.849-5.105c0.588,0.025,1.024,0.188,1.308,0.484c-0.176,3.846-0.117,8.987,0.181,15.423
		c0.378,7.864,0.582,13.085,0.614,15.655c-0.039,0.855,0.456,1.304,1.49,1.348c0.052-1.142,0.23-1.848,0.54-2.118
		c0.139,0.146,0.347,0.443,0.625,0.883c0.274,0.44,0.483,0.732,0.625,0.883c-0.456,0.264-0.772,0.679-0.944,1.244
		c1.301,0.624,2.025,0.943,2.173,0.949c0.294,0.013,0.518-0.051,0.673-0.185c0.294,0.012,0.588,0.025,0.885,0.038
		c0.145,0.006,0.502,0.305,1.067,0.902c0.02-0.427,0.261-0.845,0.723-1.254c0.132,0.289,0.265,0.654,0.394,1.087
		c-0.604,0.258-1.126,0.38-1.568,0.361c0.119,0.574,0.248,1.007,0.384,1.301c0.972,1.326,1.527,2.133,1.662,2.426
		c0.106,0.861,0.153,1.505,0.133,1.933c0.594-0.119,0.929-0.174,1.005-0.171c0.073,0.003,0.338-0.13,0.794-0.394
		c0.456-0.268,0.828-0.393,1.126-0.38c0.294,0.013,0.439,0.088,0.433,0.233c-0.02,0.427-0.052,1.138-0.098,2.137
		c-0.188,0.848-0.293,1.556-0.319,2.127c-0.045,0.995,0.447,1.518,1.48,1.562c-0.297-0.013,0.677-0.259,2.915-0.732l0.049-1.068
		c-1.32-3.482-2.018-6.011-2.092-7.583c1.705,1.498,2.702,2.256,3,2.269c0.736,0.031,1.424-0.475,2.065-1.518
		c0.636-1.043,0.895-1.854,0.775-2.428c1.218-0.804,2.202-1.335,2.954-1.587c-0.351-2.015-0.624-3.312-0.82-3.889
		c-0.195-0.581-0.365-0.945-0.504-1.092c0.191-0.993,0.376-1.77,0.55-2.331c-0.095-4.431-0.196-7.074-0.302-7.935
		c-0.253-4.148-0.37-11.289-0.349-21.425c4.906-0.647,8.548-1.134,10.929-1.46c0.339-0.982,1.184-1.662,2.532-2.033
		c0.601-0.258,1.644-0.428,3.127-0.509c0.455-0.264,0.832-0.462,1.135-0.594c5.928-1.19,10.711-2.165,14.382-2.931
		c-0.689,2.41-1.156,3.929-1.4,4.546c-1.714,4.732-2.673,8.182-2.869,10.35c-0.005,0.147-0.147,0.505-0.425,1.075
		c-0.281,0.573-0.423,1.004-0.432,1.292c-0.018,0.581,0.101,0.872,0.364,0.88l6.838-18.278l-5.021,15.864l-0.548,1.318l0.112,0.06
		l-1.496,4.728c0.637-1.831,1.201-3.363,1.699-4.619l0.146,0.079l0.625-1.439c-0.403,1.353-1.22,3.914-2.468,7.738
		c0.106-0.153,0.348-0.227,0.732-0.216l-2.936,6.219c-0.104-0.873,0.129-2.061,0.699-3.566c0.567-1.505,0.856-2.329,0.861-2.475
		c-1.159,3.229-1.853,5.226-2.088,6.013c0.034-0.067,0.08-0.134,0.144-0.2c0.101,0.872-0.919,4.321-3.065,10.345l-0.371-0.663
		c-0.063,1.993-0.303,3.387-0.714,4.191c0.587-0.963,1.07-1.71,1.435-2.214c0.115,0.438,0.173,0.728,0.168,0.874
		c0.036-1.157,0.537-2.593,1.506-4.304l0.371,0.663c0.004-0.142,0.076-0.358,0.216-0.646c0.101,0.872-0.059,1.884-0.487,3.029
		c-0.427,1.145-0.648,1.937-0.662,2.372c0.57-1.579,1.062-2.648,1.472-3.218c0.124,0.15,0.186,0.298,0.182,0.44
		c-0.005,0.146,0.055,0.294,0.182,0.44c-0.713,1.861-1.147,3.227-1.303,4.092c1.929-3.279,2.964-5.056,3.104-5.344
		c5.923-13.752,10.48-24.411,13.701-32.053l-0.073-0.045l0.411-1.074l0.113,0.047c0.139-0.331,0.293-0.694,0.427-1.013
		c3.28-9.345,5.788-16.686,7.527-22.034c0.467,0.305,0.921,0.633,1.382,0.949c-1.261,3.851-2.426,7.414-3.48,10.646
		c-0.076-0.037-0.148-0.077-0.241-0.099c0.207,0.205,0.174,0.445-0.1,0.721c0.043,0,0.085,0.025,0.128,0.031
		c-0.085,0.262-0.163,0.5-0.247,0.758c-0.133-0.105-0.266-0.203-0.393-0.273c-0.068,0.068-0.206,0.136-0.411,0.208
		c-0.206,0.068-0.411,0.207-0.616,0.414c-0.136,0.137-0.27,0.48-0.407,1.031c-0.134,0.549-0.305,0.857-0.511,0.928
		c0.268,0.158,0.687,0.51,1.247,1.042c-1.468,4.515-2.694,8.307-3.665,11.336c-5.253,13.471-8.3,21.208-9.146,23.21
		c-1.541,3.29-2.722,5.647-3.55,7.07c0.4-0.276,0.594-0.2,0.58,0.234l-0.041,1.303c0.705-1.718,1.536-3.216,2.49-4.492
		c0.255,0.154,0.315,0.301,0.182,0.44c-1.141,3.01-2.044,4.793-2.713,5.355c-2.21,3.848-3.677,6.919-4.4,9.219
		c0.961-1.568,1.651-2.707,2.065-3.418c0.128,0.004,0.124,0.146-0.014,0.434c-0.004,0.142,0.122,0.221,0.384,0.229
		c0.26,0.008,1.644-2.49,4.15-7.487c3.198-6.281,5.214-10.207,6.047-11.779c0.124,0.15,0.182,0.44,0.168,0.875
		c-0.032,1.015-1.86,5.163-5.48,12.448c0.819-1.138,1.563-2.058,2.24-2.761c0.142-0.43,0.278-0.573,0.405-0.423
		c0.4-0.276,0.724-0.267,0.978,0.029c-1.409,3.29-2.335,5.801-2.781,7.527c1.515-2.564,3.323-6.064,5.419-10.493l-0.607,0.634
		c0.004-0.142,0.496-1.29,1.478-3.435c0.251,0.299,0.375,0.52,0.371,0.663c0.464-2.303,0.907-3.957,1.33-4.961
		c0.272,0.321,0.369,0.599,0.305,0.835c2.684-4.691,4.354-8.497,5.037-11.444c0.231,0.098,0.56,0.206,1.013,0.328
		c0.755,0.201,1.272,0.371,1.546,0.508c-0.483-0.479-0.655-0.786-0.519-0.924c1.718,0.883,2.405,1.155,2.061,0.814
		c0.137,0.136,0.31,0.307,0.517,0.512c0.139,0.272,0.345,0.547,0.621,0.82c0.133-0.687,0.218-1.083,0.252-1.185
		c0.033-0.104,0.015-0.395-0.055-0.874c-0.341,0.344-0.651,0.379-0.925,0.107c-0.139-0.138-0.139-0.31-0.003-0.514
		c0.136-0.208,0.135-0.378-0.002-0.515c-0.139-0.138-0.31-0.24-0.516-0.307c-0.206-0.205-0.345-0.342-0.413-0.409
		c-0.62-0.615-0.932-1.472-0.937-2.568c0.687,0.134,1.169,0.268,1.443,0.406c-0.414-0.41-0.345-0.617,0.203-0.619l0.62,0.615
		l-0.099,0.927c0.894,0.339,1.41,0.713,1.548,1.125c0.137-0.003,0.31,0.169,0.516,0.512c0.071,0.343,0.173,0.581,0.312,0.719
		c0.137,0.136,0.446,0.238,0.927,0.305c0.48,0.065,0.755,0.133,0.824,0.202c1.019,0.749,1.954,1.481,2.816,2.2
		c0.695,0.888,1.432,1.824,2.24,2.836c0.218-0.062,0.441-0.109,0.661-0.165c0.377,0.403,1.038,1.117,2.03,2.195
		c1.447,1.434,2.238,2.218,2.376,2.356l20.347,17.918c0.62,0.615,2.065,1.772,4.336,3.48l-12.612-13.733
		c-0.139-0.138-0.361-0.223-0.67-0.254c-0.309-0.034-0.532-0.118-0.67-0.254c-0.139-0.138-0.19-0.325-0.157-0.565
		c0.034-0.241-0.02-0.429-0.157-0.565c-0.345-0.342-1.102-0.82-2.27-1.431c-0.001-0.277,0.068-0.413,0.204-0.412
		c0.686,0.271,1.203,0.44,1.546,0.508c3.031,2.729,5.405,4.949,7.128,6.657c0.068,0.068,0.377,0.169,0.927,0.305
		c0.549,0.134,0.892,0.269,1.031,0.407c1.654,1.774,3.512,3.207,5.575,4.297c0.755,0.339,1.444,0.817,2.064,1.432l0.107,0.925
		c0.137-0.002,0.481-0.004,1.029-0.004c0.003,0.685-0.031,0.993-0.098,0.926l10.532,8.803c0.344,0.341,0.518,0.786,0.52,1.335
		c0.068,0.068,0.36,0.082,0.875,0.048c0.514-0.038,0.874,0.048,1.081,0.253c0.137,0.136,0.241,0.409,0.313,0.821
		c0.071,0.41,0.14,0.651,0.209,0.719c0.137,0.136,0.602,0.495,1.393,1.075c0.791,0.578,1.291,0.972,1.497,1.177
		c0.068,0.067,0.19,0.29,0.363,0.667c0.172,0.375,0.328,0.632,0.467,0.769c0.137,0.136,0.448,0.374,0.929,0.716
		c0.482,0.34,0.79,0.579,0.929,0.716c0.964,0.956,2.412,2.32,4.339,4.097c1.86,1.844,2.754,2.731,2.687,2.664
		c0.137,0.136,0.62,0.544,1.445,1.228c0.826,0.681,1.549,1.125,2.167,1.328c0.137,0.136,0.344,0.409,0.621,0.82
		c0.276,0.409,0.482,0.683,0.621,0.82c1.24,1.229,2.409,1.704,3.504,1.425c0.137,0.136,0.207,0.273,0.208,0.411
		c0.548-0.004,1.2,0.371,1.959,1.124c0.137,0.136,0.327,0.426,0.57,0.872c0.242,0.444,0.431,0.735,0.569,0.872
		c0.137,0.136,0.447,0.306,0.928,0.511c0.482,0.202,0.79,0.372,0.929,0.51c1.858,1.432,2.891,2.251,3.097,2.456
		c-0.414-0.41-0.759-0.855-1.034-1.333c-0.277-0.479-0.45-0.753-0.519-0.821c-0.139-0.138-1.084-0.94-2.84-2.406
		c-1.756-1.468-2.702-2.269-2.84-2.406c0.137,0.136-1.102-0.888-3.718-3.07c-1.652-1.366-3.099-3.006-4.342-4.92
		c1.854,0.609,5.571,3.68,11.152,9.212c0.207,0.205,0.706,0.424,1.495,0.662c0.79,0.237,1.254,0.353,1.39,0.355
		c-2.476-1.636-4.404-3.137-5.781-4.502c-0.07-0.069-0.156-0.257-0.26-0.565s-0.226-0.531-0.363-0.668l-0.72-0.1
		c-1.791-1.365-3.167-2.525-4.131-3.48c-0.139-0.138-0.258-0.359-0.362-0.667c-0.105-0.309-0.192-0.498-0.26-0.565
		c-0.139-0.138-0.361-0.291-0.671-0.46c-0.309-0.172-0.534-0.324-0.671-0.46c-0.281-0.279-0.562-0.729-0.843-1.28
		c0.149,0.168,0.345,0.376,0.635,0.663c0.137,0.136,0.618,0.306,1.443,0.508c0.823,0.202,1.304,0.371,1.443,0.508
		c0.137,0.136,0.224,0.29,0.259,0.462c0.036,0.171,0.086,0.29,0.156,0.359c0.409-0.413,0.992-0.451,1.749-0.11
		c0.478-0.07,0.821-0.14,1.028-0.211c0.963,0.682,1.375,0.954,1.238,0.818c0.688,0.682,1.206,1.538,1.554,2.566
		c0.202-0.481,0.476-0.687,0.82-0.621c0.343,0.067,0.583,0.167,0.722,0.305c0.34-0.207,0.58-0.378,0.718-0.517
		c0.547-0.003,0.958-0.005,1.234-0.006c-0.689-0.408-1.204-0.784-1.548-1.125c-0.755,0.209-1.202,0.314-1.336,0.314
		c0.203-0.618,0.372-1.066,0.508-1.34c-1.713,0.35-2.88,0.218-3.5-0.397c-0.483-0.479-0.863-1.06-1.139-1.744
		c0.55,0.273,0.893,0.475,1.032,0.613c0.409-0.413,0.648-0.587,0.718-0.518c0.068,0.206,0.138,0.342,0.207,0.411
		c0.137,0.136,0.241,0.136,0.309-0.001c0.067-0.139,0.17-0.139,0.309-0.001c0.206,0.205,0.308,0.444,0.312,0.718
		c-0.002-0.411,0.135-0.481,0.41-0.207c-0.414-0.273-0.552-0.547-0.415-0.821c0.547-0.003,0.89-0.072,1.028-0.21
		c-0.413-0.409-0.622-0.752-0.622-1.026c0.89-0.21,1.611-0.043,2.163,0.505c0.207,0.205,0.378,0.375,0.517,0.512l-1.034-1.025
		c-0.417-1.233-1.246-2.189-2.482-2.87l-0.004-0.822c2.267,1.293,3.471,2.006,3.61,2.144c-0.559-0.554-1.298-1.287-2.273-2.253
		c-0.003-0.275,0.032-0.378,0.101-0.309c1.511,0.817,2.336,1.292,2.475,1.429c2.756,3.007,4.513,4.884,5.272,5.637
		c0.207,0.205,0.446,0.615,0.726,1.232c0.276,0.616,0.45,0.957,0.519,1.026c0.757,0.751,1.927,1.639,3.51,2.661l1.434-1.447
		c-0.07-0.069-0.517-0.512-1.343-1.332C267.234,218.253,267.268,217.877,267.265,217.053z M216.962,129.261
		c-0.218,0.613-0.536,1.018-0.949,1.214c-0.209,0.099-0.246,0.022-0.111-0.233c0.133-0.254,0.096-0.331-0.111-0.233
		c-0.622,0.296-0.957,0.393-1.007,0.288C216.029,129.705,216.753,129.36,216.962,129.261z M71.001,124.41l-0.427-0.019l0.465-0.836
		l0.418,0.233L71.001,124.41z M117.261,32.039l0.427,0.019l-0.717,1.681l-0.418-0.232L117.261,32.039z M115.884,34.119l0.427,0.019
		l-0.271,1.273l-0.418-0.233L115.884,34.119z M102.219,57.494l0.418,0.233l-0.465,0.836l-0.418-0.232L102.219,57.494z
		 M101.279,59.379l0.427,0.019l-0.475,1.05l-0.418-0.233L101.279,59.379z M100.34,61.265l0.427,0.019l-1.376,2.08l-0.427-0.019
		L100.34,61.265z M98.731,63.763l0.427,0.019l-1.191,2.731l-0.418-0.233L98.731,63.763z M90.88,76.69l0.427,0.019l-0.038,0.855
		l-0.427-0.019L90.88,76.69z M89.94,78.575l0.427,0.019l-1.395,2.508l-0.418-0.233L89.94,78.575z M112.891,126.048
		c0.082-1.85,0.276-4.66,0.587-8.43c0.307-3.767,0.466-5.687,0.469-5.76c0.003-0.069,0.119-0.278,0.349-0.627
		c0.229-0.345,0.421-0.656,0.577-0.937c0.019-0.427,0.06-1.353,0.123-2.778c0.031-0.712,0.318-0.769,0.864-0.176L112.891,126.048z
		 M118.743,75.995c-1.15,3.375-1.894,5.697-2.235,6.967l-5.046,26.967c-0.312,0.557-0.548,1.046-0.707,1.467
		c0.46,2.449,0.159,4.432-0.906,5.955c-0.761,7.532-1.373,13.286-1.833,17.26c-5.893,0.883-10.343,1.506-13.357,1.872
		c-3.014,0.368-5.525,0.649-7.531,0.844c0.497-1.546,0.831-2.673,1.006-3.381c0.73-0.396,2.798-1.161,6.203-2.295
		c3.402-1.134,5.39-1.689,5.961-1.663c0.284,0.012,0.351,0.089,0.204,0.223l0.427,0.019c0.855,0.038,1.298-0.297,1.329-1.012
		c-0.281-0.153-0.919-0.255-1.914-0.299c-0.287-0.013-0.612,0.081-0.976,0.279c-0.367,0.198-0.622,0.293-0.762,0.287
		c-2.851-0.126-5.859,0.1-9.022,0.672l11.409-25.614l0.418,0.233L114.3,79.652c0.277,0.155,0.482,0.379,0.613,0.669
		c1.924-4.766,3.574-8.192,4.95-10.272C119.462,72.601,119.09,74.585,118.743,75.995z M123.198,159.261l0.484-1.263
		c-0.006,0.144,0.021,0.289,0.088,0.432c0.064,0.147,0.161,0.366,0.292,0.655C123.769,159.217,123.482,159.274,123.198,159.261z
		 M125.689,131.966l-0.641-0.028l0.038-0.855l0.641,0.028L125.689,131.966z M158.591,159.901l-0.388-0.012l0.765-1.825
		L158.591,159.901z M160.324,153.901l-0.3-0.013l-0.576,1.434l0.689-2.765l0.567,0.017L160.324,153.901z M160.214,144.595
		c-0.066,0.013-0.131,0.025-0.186,0.023c-0.144-0.006-0.637-0.134-1.482-0.386c-0.845-0.251-1.341-0.381-1.481-0.387
		c-0.287-0.013-2.224,0.224-5.812,0.707c-3.591,0.483-5.528,0.718-5.812,0.706c-0.287-0.013-0.501-0.022-0.641-0.028
		c-0.137-0.147-0.278-0.226-0.418-0.233c-0.287-0.013-0.898,0.105-1.835,0.347c-0.941,0.246-1.481,0.363-1.621,0.356
		c-0.427-0.019-0.631-0.242-0.613-0.669c5.332-1.189,8.358-1.841,9.078-1.954l-1.709-0.076c-3.323,0.854-5.329,1.049-6.021,0.59
		c0.296-0.271,0.907-0.388,1.835-0.347c0.925,0.041,2.476-0.319,4.651-1.079c1.157-0.377,1.958-0.696,2.398-0.965
		c4.481-1.012,8.229-1.874,11.273-2.593C161.194,140.974,160.66,142.966,160.214,144.595z M162.246,136.975
		c-0.06,0.011-0.125,0.028-0.169,0.026c-0.571-0.025-0.845-0.251-0.826-0.679c0.498-0.27,0.938-0.497,1.35-0.704
		C162.48,136.079,162.361,136.535,162.246,136.975z M167.365,163.645l-0.371-0.228l0.632-2.155l0.567,0.017L167.365,163.645z
		 M172.978,160.255l-0.083-0.082c0.091-0.248,0.161-0.48,0.213-0.697l0.176,0.058L172.978,160.255z M173.106,127.965
		c0.182-0.562,0.364-1.124,0.528-1.64c0.375,0.444,0.654,0.741,0.871,0.943C174.005,127.519,173.538,127.752,173.106,127.965z
		 M177.446,124.17l0.274-2.818l0.567,0.017l-0.274,2.818L177.446,124.17z M178.573,124.422l-0.567-0.017l0.47-3.029l0.567,0.017
		L178.573,124.422z M175.749,92.942c-0.181-0.229-0.399-0.406-0.659-0.527c0.321-1.036,1.436-1.533,3.363-1.475
		c0.88,0.027,1.558,0.557,2.032,1.583L175.749,92.942z M185.347,106.801l0.567,0.017l-0.417,1.292l-0.56-0.234L185.347,106.801z
		 M185.769,111.596l-0.567-0.017l0.039-1.303l0.567,0.017L185.769,111.596z M186.023,109.43l-0.378-0.011l0.261-2.383l0.567,0.017
		L186.023,109.43z M249.18,222.688l-0.411,0.002l-0.415-0.821L249.18,222.688z M253.993,217.214l0.62,0.615l-0.308,0.31l-0.62-0.615
		L253.993,217.214z M247.762,203.865l0.722,0.306l-0.101,0.309l-0.825-0.408L247.762,203.865z M239.088,196.7
		c-0.139-0.138-0.209-0.341-0.208-0.616c-0.003-0.275-0.072-0.48-0.209-0.617c-0.139-0.138-0.243-0.343-0.311-0.616
		c-0.071-0.275-0.14-0.447-0.208-0.514c0.342-0.07,0.547-0.139,0.616-0.208c0.068,0.067,0.121,0.221,0.157,0.462
		c0.034,0.239,0.12,0.427,0.259,0.565c0.137,0.136,0.238,0.102,0.308-0.104c0.067-0.206,0.169-0.242,0.308-0.104
		c0.137,0.136,0.206,0.341,0.209,0.616c0,0.275,0.07,0.479,0.209,0.617c0.068,0.067,0.204,0.068,0.411-0.002
		c0.204-0.07,0.411-0.002,0.618,0.203c-0.206-0.205,0.449,0.855,1.969,3.181c-0.963-0.408-1.925-1.09-2.889-2.045
		c-0.139-0.138-0.363-0.29-0.671-0.46C239.344,196.887,239.156,196.767,239.088,196.7z M240.907,212.846l-0.93-0.922l0.307-0.31
		l0.93,0.922L240.907,212.846z M241.94,213.87l-0.723-0.717l0.307-0.31l0.723,0.717L241.94,213.87z M242.955,210.574l0.619,0.614
		l-0.308,0.31l-0.619-0.614L242.955,210.574z M243.594,215.509l-0.723-0.717l0.307-0.31l0.723,0.717L243.594,215.509z
		 M243.422,199.768l0.93,0.922l0.309-0.105c0.137,0.136,0.241,0.377,0.312,0.719c-0.001,0.136,0.102,0.239,0.31,0.307l0.206,0.205
		l-0.101,0.309c-0.069-0.069-0.241-0.102-0.514-0.101c-0.277,0.001-0.481-0.067-0.618-0.203
		C243.909,201.48,243.633,200.796,243.422,199.768z M244.298,211.905c0.068,0.068,0.258,0.186,0.568,0.358
		c0.309,0.169,0.567,0.358,0.774,0.562c-0.139-0.138-0.206,0.001-0.204,0.413c0.412-0.002,0.686-0.072,0.823-0.209l0.005,1.234
		C245.367,213.236,244.712,212.45,244.298,211.905z M246.256,212.617c-0.896-0.888-1.345-1.469-1.345-1.744
		c0.411-0.002,0.824,0.203,1.237,0.612C246.285,211.622,246.322,212,246.256,212.617z M246.966,210.247l0.62,0.615l-0.308,0.31
		l-0.62-0.615L246.966,210.247z M251.002,215.478c-1.511,0.006-2.367-0.093-2.574-0.297l-1.343-1.332
		c-0.483-0.479-0.519-0.924-0.109-1.337c-0.276-0.136,0.414,0.615,2.068,2.255l0.413,0.409
		C249.797,214.969,250.312,215.069,251.002,215.478z M250.661,208.174c-0.139-0.138-0.173-0.238-0.104-0.308
		c0.067-0.068,0.033-0.172-0.104-0.308c-0.139-0.138-0.242-0.137-0.309,0.001c-0.068,0.137-0.172,0.138-0.309,0.001
		c-0.069-0.069-0.175-0.411-0.313-1.027c-0.141-0.617-0.313-1.028-0.52-1.233c2.548,2.526,3.788,3.755,3.72,3.688
		C251.141,208.239,250.455,207.969,250.661,208.174z M252.848,214.235l-0.623-1.232c0.481,0.477,0.928,0.785,1.342,0.92
		C253.223,213.992,252.984,214.097,252.848,214.235z M253.563,212.895l-0.307,0.31l-0.93-0.922l0.307-0.31L253.563,212.895z
		 M254.556,204.659c0.066-0.344,0.168-0.583,0.305-0.722c0.068,0.068,0.156,0.257,0.26,0.565c0.104,0.308,0.224,0.53,0.363,0.668
		C255.208,204.896,254.899,204.726,254.556,204.659z M256.21,206.503l-0.519-0.924l0.307-0.31l0.519,0.924L256.21,206.503z
		 M258.069,208.142l1.029-0.004c0.828,1.232,1.862,2.462,3.102,3.691C260.754,210.394,259.376,209.165,258.069,208.142z
		 M263.754,213.982l-0.932-1.334l0.307-0.31l0.932,1.334L263.754,213.982z M266.233,216.44l-0.62-0.615l0.307-0.31l0.62,0.615
		L266.233,216.44z"/>
	<path d="M255.325,216.076c0.343-0.071,0.581-0.173,0.719-0.312c-0.139-0.138-0.397-0.323-0.774-0.562
		c-0.379-0.237-0.637-0.427-0.774-0.563C254.839,215.255,255.117,215.734,255.325,216.076z"/>
	<rect x="251.512" y="216.089" transform="matrix(0.7039 -0.7103 0.7103 0.7039 -79.8284 243.1686)" width="0.436" height="2.474"/>
	<path d="M253.485,218.759c-0.548,0.275-0.925,0.312-1.132,0.108c0.756,0.477,1.272,0.851,1.549,1.125
		C253.626,219.718,253.486,219.308,253.485,218.759z"/>
	<path d="M256.747,211.543L256.747,211.543c0.664,0.659,1.061,1.052,1.137,1.127C258.02,212.805,257.641,212.429,256.747,211.543z"
		/>
	<path d="M258.031,223.267l0.205-0.207c0.067-0.206,0.135-0.343,0.204-0.413l0.72,0.1c-0.346-0.616-0.657-1.129-0.932-1.539
		c0.001,0.412-0.137,0.48-0.411,0.208c-0.139-0.138-0.139-0.241-0.001-0.309c0.136-0.07,0.136-0.173-0.001-0.309
		c-0.139-0.138-0.551-0.342-1.237-0.612c-0.336-0.133-0.611-0.257-0.832-0.374c0.041,0.025,0.064,0.041,0.11,0.068
		c0.275,0.272,0.481,0.477,0.62,0.615c-0.196-0.194,0.058,0.438,0.733,1.846c0.014-0.154,0.278-0.259,0.817-0.31
		C257.958,222.65,257.96,223.062,258.031,223.267z"/>
	<rect x="260.437" y="218.129" transform="matrix(0.7039 -0.7103 0.7103 0.7039 -77.9837 249.7808)" width="0.291" height="0.582"/>
	<path d="M258.95,221.513l-0.205,0.207c0.343,0.068,0.616,0.134,0.824,0.203c-0.206-0.205-0.243-0.375-0.105-0.514
		c0.823,0.133,1.407,0.302,1.751,0.507c-1.103-1.093-1.998-1.844-2.684-2.252C259.011,220.005,259.15,220.621,258.95,221.513z"/>
	
		<rect x="258.261" y="227.366" transform="matrix(-0.7101 -0.7041 0.7041 -0.7101 282.2802 571.3935)" width="1.018" height="0.437"/>
	<polygon points="259.444,216.675 259.238,216.882 259.654,217.704 259.962,217.6 	"/>
	<polygon points="257.295,219.463 256.47,219.055 256.163,219.365 256.988,219.773 	"/>
	<rect x="257.834" y="213.89" transform="matrix(0.7102 0.704 -0.704 0.7102 225.5741 -119.7239)" width="0.728" height="0.437"/>
</g>
</svg>
